<?xml version="1.0" encoding="utf-8"?>
<!-- Generator: Adobe Illustrator 27.0.0, SVG Export Plug-In . SVG Version: 6.00 Build 0)  -->
<svg version="1.1" id="Layer_1" xmlns="http://www.w3.org/2000/svg" xmlns:xlink="http://www.w3.org/1999/xlink" x="0px" y="0px"
	 viewBox="0 0 1366 768" style="enable-background:new 0 0 1366 768;" xml:space="preserve">
<style type="text/css">
	.st0{fill:#FDEDE4;}
	.st1{enable-background:new    ;}
	.st2{filter:url(#Adobe_OpacityMaskFilter);}
	.st3{mask:url(#ma0_00000040574511802451670000000018308673856492683926_);}
	.st4{clip-path:url(#SVGID_00000136374974020259436480000001624000305788654214_);}
	.st5{opacity:0.5;}
	.st6{clip-path:url(#SVGID_00000120521071335098049930000010170324437311786406_);}
	.st7{fill:#666666;}
	.st8{clip-path:url(#SVGID_00000134970678514726115230000014065737860161602949_);}
	.st9{clip-path:url(#SVGID_00000078018982112859560890000010324990863364775571_);}
	.st10{clip-path:url(#SVGID_00000026844449325199260900000003580590090513452460_);}
	.st11{clip-path:url(#SVGID_00000180343901160055089240000011802785458864850818_);}
	.st12{fill:none;stroke:#666666;stroke-miterlimit:10;}
	.st13{opacity:0.6;}
	.st14{clip-path:url(#SVGID_00000064354622234090994500000016142801990231290268_);}
	.st15{fill:#606060;}
	.st16{clip-path:url(#SVGID_00000158026348700351842380000000639697139021346985_);}
	.st17{clip-path:url(#SVGID_00000001627164398179411390000010901099444942747056_);}
	.st18{clip-path:url(#SVGID_00000123437015198449375640000017715820024394903983_);}
	.st19{clip-path:url(#SVGID_00000008137109695461436520000010119977683500756131_);}
	.st20{clip-path:url(#SVGID_00000173128644917816632770000013628266971005516949_);}
	.st21{filter:url(#Adobe_OpacityMaskFilter_00000031903146148932655200000017905108536725419433_);}
	.st22{mask:url(#ma0_00000059307645431256653050000001466161460202974909_);}
	.st23{clip-path:url(#SVGID_00000115505585606965102060000012483084932376803990_);}
	.st24{clip-path:url(#SVGID_00000023990725065105145280000004028555019486552985_);}
	.st25{clip-path:url(#SVGID_00000001625701743576336100000000764109669471610282_);}
	.st26{clip-path:url(#SVGID_00000162333160269153146090000010599349772897481892_);}
	.st27{clip-path:url(#SVGID_00000057826888186376178090000011955324200126821560_);}
	.st28{clip-path:url(#SVGID_00000054980244600091650330000011222046410904521610_);}
	.st29{clip-path:url(#SVGID_00000034091650567545043320000012681577172549166488_);}
	.st30{clip-path:url(#SVGID_00000129176470339174549900000005538331900545365410_);}
	.st31{clip-path:url(#SVGID_00000181774337011182972380000006291198036296163975_);}
	.st32{clip-path:url(#SVGID_00000003081947864659212590000014156172685206671008_);}
	.st33{clip-path:url(#SVGID_00000018935383800919241230000016179320637188989346_);}
	.st34{clip-path:url(#SVGID_00000018947747804144264390000002613342089135387822_);}
	.st35{filter:url(#Adobe_OpacityMaskFilter_00000034780750657907771770000005392249318366495900_);}
	.st36{mask:url(#ma0_00000052792609076258517620000007464318226661896355_);}
	.st37{clip-path:url(#SVGID_00000110432798440091810430000003542508773666887043_);}
	.st38{clip-path:url(#SVGID_00000046304110860367127470000004431695977187915657_);}
	.st39{clip-path:url(#SVGID_00000073709697139386515860000000499437957179311805_);}
	.st40{clip-path:url(#SVGID_00000064337290812523903920000002152258675309084847_);}
	.st41{clip-path:url(#SVGID_00000083802992195730452120000017909353025924442244_);}
	.st42{clip-path:url(#SVGID_00000136369704495681381960000004830872546844545179_);}
	.st43{clip-path:url(#SVGID_00000057110566484150300520000006606582487536213892_);}
	.st44{clip-path:url(#SVGID_00000124850786043967572330000018338934565049526445_);}
	.st45{clip-path:url(#SVGID_00000075882423157638040030000004506721811811647409_);}
	.st46{clip-path:url(#SVGID_00000111154330003355047790000002635044007724638900_);}
	.st47{clip-path:url(#SVGID_00000170256335654348550010000000732572190693303949_);}
	.st48{clip-path:url(#SVGID_00000160897714851303290260000009773676891594681019_);}
</style>
<symbol  id="im1" viewBox="-26.5 -22.5 53 45">
	
		<image style="overflow:visible;enable-background:new    ;" width="53" height="45" xlink:href="D78235A3DF9DF182.jpg"  transform="matrix(1 0 0 1 -26.5 -22.5)">
	</image>
</symbol>
<symbol  id="im2" viewBox="-26.5 -22.5 53 45">
	
		<image style="overflow:visible;enable-background:new    ;" width="53" height="45" xlink:href="D78235A3DF9DF186.jpg"  transform="matrix(1 0 0 1 -26.5 -22.5)">
	</image>
</symbol>
<rect x="-2.7" y="2.5" class="st0" width="1368.7" height="621.9"/>
<g class="st1">
	<g>
		<g id="Layer-1">
			<defs>
				<filter id="Adobe_OpacityMaskFilter" filterUnits="userSpaceOnUse" x="837.8" y="470.1" width="518.4" height="291.5">
					<feColorMatrix  type="matrix" values="1 0 0 0 0  0 1 0 0 0  0 0 1 0 0  0 0 0 1 0"/>
				</filter>
			</defs>
			
				<mask maskUnits="userSpaceOnUse" x="837.8" y="470.1" width="518.4" height="291.5" id="ma0_00000040574511802451670000000018308673856492683926_">
				<g transform="matrix(25.773585,0,0,17.066668,0,0)" class="st2">
					
						<use xlink:href="#im1"  width="53" height="45" x="-26.5" y="-22.5" transform="matrix(0.3795 0 0 0.3795 42.5633 36.0814)" style="overflow:visible;"/>
				</g>
			</mask>
			<g class="st3">
				<g transform="matrix(25.773585,0,0,17.066668,0,0)">
					<g transform="matrix(1 0 0 1 0 0)">
						
							<use xlink:href="#im2"  width="53" height="45" x="-26.5" y="-22.5" transform="matrix(0.3795 0 0 0.3795 42.5633 36.0814)" style="overflow:visible;"/>
					</g>
				</g>
			</g>
			<g>
				<defs>
					<rect id="SVGID_1_" x="847.6" y="476.5" width="518.4" height="291.5"/>
				</defs>
				<clipPath id="SVGID_00000083805998570710690700000008900492910858304670_">
					<use xlink:href="#SVGID_1_"  style="overflow:visible;"/>
				</clipPath>
				<g style="clip-path:url(#SVGID_00000083805998570710690700000008900492910858304670_);">
					<g class="st5">
						<g>
							<defs>
								<rect id="SVGID_00000094597632823096802520000013237231141571043763_" x="1081.8" y="553.9" width="106.9" height="214.1"/>
							</defs>
							<clipPath id="SVGID_00000076598092132719171610000013171674042230180491_">
								<use xlink:href="#SVGID_00000094597632823096802520000013237231141571043763_"  style="overflow:visible;"/>
							</clipPath>
							<g style="clip-path:url(#SVGID_00000076598092132719171610000013171674042230180491_);">
								<path class="st7" d="M1188.7,768h-106.9V638.2h106.9V768z"/>
								<path class="st7" d="M1135.3,553.9h-24v7h2.9c0,70.7-19.5,77.3-19.5,77.3h-12.8h106.9h-12.8c0,0-19.5-6.6-19.5-77.3h2.9v-7
									H1135.3z"/>
							</g>
						</g>
					</g>
					<g class="st5">
						<g>
							<defs>
								<rect id="SVGID_00000022542085122243336320000011726097821314049418_" x="963.1" y="553.9" width="113.5" height="213.5"/>
							</defs>
							<clipPath id="SVGID_00000157268997605365912320000014321575274518606738_">
								<use xlink:href="#SVGID_00000022542085122243336320000011726097821314049418_"  style="overflow:visible;"/>
							</clipPath>
							<g style="clip-path:url(#SVGID_00000157268997605365912320000014321575274518606738_);">
								<path class="st7" d="M1071.4,649H968.2l0,118.4h103.1V649z"/>
								<path class="st7" d="M977.7,640.4h-14.6v-3.2h14.6V640.4z"/>
								<path class="st7" d="M1076.5,640.4H1062v-3.2h14.6V640.4z"/>
								<path class="st7" d="M989.6,615H975v-3.2h14.6V615z"/>
								<path class="st7" d="M1064.6,615h-14.6v-3.2h14.6V615z"/>
								<path class="st7" d="M1001.7,595.9h-14.6v-3.2h14.6V595.9z"/>
								<path class="st7" d="M1052.5,595.9h-14.6v-3.2h14.6V595.9z"/>
								<path class="st7" d="M1013.6,567.4H999v-3.2h14.6V567.4z"/>
								<path class="st7" d="M1040.6,567.4h-14.6v-3.2h14.6V567.4z"/>
								<path class="st7" d="M1071.4,640.4H968.2v8.6l103.1,0V640.4z"/>
								<path class="st7" d="M1062,615h-84.3l0,25.4h84.3V615z"/>
								<path class="st7" d="M1050.1,595.9h-60.5v19h60.5V595.9z"/>
								<path class="st7" d="M1037.9,567.4h-36.2v28.5h36.2V567.4z"/>
								<path class="st7" d="M1026.1,567.4h-12.5v-13.5h12.5V567.4z"/>
							</g>
						</g>
					</g>
					<g class="st5">
						<g>
							<defs>
								<rect id="SVGID_00000071560117531351245760000014262656865749303186_" x="1199.5" y="554.5" width="113.4" height="213.5"/>
							</defs>
							<clipPath id="SVGID_00000165941897746650934650000007109797051616167357_">
								<use xlink:href="#SVGID_00000071560117531351245760000014262656865749303186_"  style="overflow:visible;"/>
							</clipPath>
							<g style="clip-path:url(#SVGID_00000165941897746650934650000007109797051616167357_);">
								<path class="st7" d="M1307.8,649.6h-103.1V768h103.1V649.6z"/>
								<path class="st7" d="M1214.1,641.1h-14.6v-3.2h14.6V641.1z"/>
								<path class="st7" d="M1313,641.1h-14.6v-3.2h14.6V641.1z"/>
								<path class="st7" d="M1226,615.6h-14.6v-3.2h14.6V615.6z"/>
								<path class="st7" d="M1301.1,615.6h-14.6v-3.2h14.6V615.6z"/>
								<path class="st7" d="M1238.2,596.6h-14.6v-3.2h14.6V596.6z"/>
								<path class="st7" d="M1288.9,596.6h-14.6v-3.2h14.6V596.6z"/>
								<path class="st7" d="M1250,568h-14.6v-3.2h14.6V568z"/>
								<path class="st7" d="M1277.1,568h-14.6v-3.2h14.6V568z"/>
								<path class="st7" d="M1307.8,641.1h-103.1v8.6l103.1,0V641.1z"/>
								<path class="st7" d="M1298.4,615.6h-84.3v25.4h84.3V615.6z"/>
								<path class="st7" d="M1286.5,596.6H1226v19h60.5V596.6z"/>
								<path class="st7" d="M1274.3,568h-36.2v28.5h36.2V568z"/>
								<path class="st7" d="M1262.5,568H1250v-13.5h12.5V568z"/>
							</g>
						</g>
					</g>
					<g class="st5">
						<g>
							<defs>
								<rect id="SVGID_00000156574708136466669280000011490015997671432368_" x="847.6" y="553.6" width="112.8" height="214.4"/>
							</defs>
							<clipPath id="SVGID_00000160190574773562428540000018174855693171105951_">
								<use xlink:href="#SVGID_00000156574708136466669280000011490015997671432368_"  style="overflow:visible;"/>
							</clipPath>
							<g style="clip-path:url(#SVGID_00000160190574773562428540000018174855693171105951_);">
								<path class="st7" d="M922.6,595.5V573H904h-18.6v22.4h-37.8V768h112.8V595.5H922.6z"/>
								<path class="st7" d="M925.9,572.1c0,2.6-2.1,4.7-4.7,4.7c-2.6,0-4.7-2.1-4.7-4.7c0-2.6,2.1-4.7,4.7-4.7
									C923.8,567.5,925.9,569.6,925.9,572.1"/>
								<path class="st7" d="M891.5,572.1c0,2.6-2.1,4.7-4.7,4.7c-2.6,0-4.7-2.1-4.7-4.7c0-2.6,2.1-4.7,4.7-4.7
									C889.4,567.5,891.5,569.6,891.5,572.1"/>
								<path class="st7" d="M919.7,569.3c0,8.7-7,15.7-15.7,15.7s-15.7-7-15.7-15.7c0-8.7,7-15.7,15.7-15.7
									S919.7,560.6,919.7,569.3"/>
							</g>
						</g>
					</g>
					<g class="st5">
						<g>
							<defs>
								<rect id="SVGID_00000022547704312616344630000001260985055695789241_" x="1317" y="553.6" width="112.8" height="214.4"/>
							</defs>
							<clipPath id="SVGID_00000169556249950109198330000005400454857711413891_">
								<use xlink:href="#SVGID_00000022547704312616344630000001260985055695789241_"  style="overflow:visible;"/>
							</clipPath>
							<g style="clip-path:url(#SVGID_00000169556249950109198330000005400454857711413891_);">
								<path class="st7" d="M1392.1,595.5V573h-18.6h-18.6v22.4H1317V768h112.8V595.5H1392.1z"/>
								<path class="st7" d="M1360.9,572.1c0,2.6-2.1,4.7-4.7,4.7s-4.7-2.1-4.7-4.7c0-2.6,2.1-4.7,4.7-4.7
									S1360.9,569.6,1360.9,572.1"/>
								<path class="st7" d="M1389.1,569.3c0,8.7-7,15.7-15.7,15.7c-8.7,0-15.7-7-15.7-15.7c0-8.7,7-15.7,15.7-15.7
									C1382.1,553.6,1389.1,560.6,1389.1,569.3"/>
							</g>
						</g>
					</g>
					<g class="st5">
						<g>
							<defs>
								<path id="SVGID_00000146475929386199570670000006882548974992542343_" d="M1110.4,621.4L1110.4,621.4z"/>
							</defs>
							<clipPath id="SVGID_00000162340569272976537590000017823601200540609953_">
								<use xlink:href="#SVGID_00000146475929386199570670000006882548974992542343_"  style="overflow:visible;"/>
							</clipPath>
						</g>
					</g>
					<g class="st5">
						<g>
							<defs>
								<path id="SVGID_00000003078634204123911030000014730633002254661788_" d="M1110.4,622.2L1110.4,622.2z"/>
							</defs>
							<clipPath id="SVGID_00000070808772431592209370000000075873399179892671_">
								<use xlink:href="#SVGID_00000003078634204123911030000014730633002254661788_"  style="overflow:visible;"/>
							</clipPath>
						</g>
					</g>
					<path class="st12" d="M828.6,476.5c111.4,40.5,551,48.9,566.7,39.7"/>
					<path class="st12" d="M828.6,466.7c111.4,40.5,551,48.9,566.7,39.7"/>
					<g class="st13">
						<g>
							<defs>
								<rect id="SVGID_00000137111032390307505860000006574018420738702988_" x="1082.7" y="510.4" width="13.9" height="2.8"/>
							</defs>
							<clipPath id="SVGID_00000013872633439380080320000004176282940472390587_">
								<use xlink:href="#SVGID_00000137111032390307505860000006574018420738702988_"  style="overflow:visible;"/>
							</clipPath>
							<g style="clip-path:url(#SVGID_00000013872633439380080320000004176282940472390587_);">
								<path class="st15" d="M1096.5,513.2l-13.7-1l0.1-1.8l13.7,1L1096.5,513.2z"/>
							</g>
						</g>
					</g>
					<g class="st13">
						<g>
							<defs>
								<rect id="SVGID_00000067198107336119363330000013691230453334033325_" x="1083.4" y="500.7" width="13.9" height="2.8"/>
							</defs>
							<clipPath id="SVGID_00000182507081701633911130000005383353109352405139_">
								<use xlink:href="#SVGID_00000067198107336119363330000013691230453334033325_"  style="overflow:visible;"/>
							</clipPath>
							<g style="clip-path:url(#SVGID_00000182507081701633911130000005383353109352405139_);">
								<path class="st15" d="M1097.1,503.5l-13.7-1l0.1-1.8l13.7,1L1097.1,503.5z"/>
							</g>
						</g>
					</g>
					<g class="st13">
						<g>
							<defs>
								<rect id="SVGID_00000088851558165794699510000001989482256816696716_" x="921.4" y="495.2" width="13.9" height="3.5"/>
							</defs>
							<clipPath id="SVGID_00000132049440311365147090000012916580237188194959_">
								<use xlink:href="#SVGID_00000088851558165794699510000001989482256816696716_"  style="overflow:visible;"/>
							</clipPath>
							<g style="clip-path:url(#SVGID_00000132049440311365147090000012916580237188194959_);">
								<path class="st15" d="M935.1,498.7l-13.7-1.7l0.2-1.8l13.7,1.7L935.1,498.7z"/>
							</g>
						</g>
					</g>
					<g class="st13">
						<g>
							<defs>
								<rect id="SVGID_00000145743367846299862900000015510582119490962847_" x="922.6" y="485.6" width="13.9" height="3.5"/>
							</defs>
							<clipPath id="SVGID_00000093173549511224799640000005761303306277770629_">
								<use xlink:href="#SVGID_00000145743367846299862900000015510582119490962847_"  style="overflow:visible;"/>
							</clipPath>
							<g style="clip-path:url(#SVGID_00000093173549511224799640000005761303306277770629_);">
								<path class="st15" d="M936.3,489.1l-13.7-1.7l0.2-1.8l13.7,1.7L936.3,489.1z"/>
							</g>
						</g>
					</g>
					<g class="st13">
						<g>
							<defs>
								<rect id="SVGID_00000084514850519226945230000004499415659274084247_" x="1330.6" y="518.4" width="13.8" height="2"/>
							</defs>
							<clipPath id="SVGID_00000072974479459503109630000011049477477631202985_">
								<use xlink:href="#SVGID_00000084514850519226945230000004499415659274084247_"  style="overflow:visible;"/>
							</clipPath>
							<g style="clip-path:url(#SVGID_00000072974479459503109630000011049477477631202985_);">
								<path class="st15" d="M1344.4,520.2l-13.8,0.1l0-1.8l13.8-0.1L1344.4,520.2z"/>
							</g>
						</g>
					</g>
					<g class="st13">
						<g>
							<defs>
								<rect id="SVGID_00000128456007432304703670000004571714131158913680_" x="1330.5" y="508.6" width="13.8" height="2"/>
							</defs>
							<clipPath id="SVGID_00000054987896938501317060000006127169972328707467_">
								<use xlink:href="#SVGID_00000128456007432304703670000004571714131158913680_"  style="overflow:visible;"/>
							</clipPath>
							<g style="clip-path:url(#SVGID_00000054987896938501317060000006127169972328707467_);">
								<path class="st15" d="M1344.3,510.5l-13.8,0.1l0-1.8l13.8-0.1L1344.3,510.5z"/>
							</g>
						</g>
					</g>
				</g>
			</g>
		</g>
	</g>
</g>
<g class="st1">
	<g>
		<g id="Layer-1_00000076584676892448477050000013003062733359231401_">
			<defs>
				
					<filter id="Adobe_OpacityMaskFilter_00000155120665316478691130000011246806234216814253_" filterUnits="userSpaceOnUse" x="332.5" y="471.3" width="518.4" height="291.5">
					<feColorMatrix  type="matrix" values="1 0 0 0 0  0 1 0 0 0  0 0 1 0 0  0 0 0 1 0"/>
				</filter>
			</defs>
			
				<mask maskUnits="userSpaceOnUse" x="332.5" y="471.3" width="518.4" height="291.5" id="ma0_00000059307645431256653050000001466161460202974909_">
				
					<g transform="matrix(25.773585,0,0,17.066668,0,0)" style="filter:url(#Adobe_OpacityMaskFilter_00000155120665316478691130000011246806234216814253_);">
					
						<use xlink:href="#im1"  width="53" height="45" x="-26.5" y="-22.5" transform="matrix(-0.3795 0 0 0.3795 22.9577 36.1555)" style="overflow:visible;"/>
				</g>
			</mask>
			<g class="st22">
				<g transform="matrix(25.773585,0,0,17.066668,0,0)">
					<g transform="matrix(1 0 0 1 0 0)">
						
							<use xlink:href="#im2"  width="53" height="45" x="-26.5" y="-22.5" transform="matrix(-0.3795 0 0 0.3795 22.9577 36.1555)" style="overflow:visible;"/>
					</g>
				</g>
			</g>
			<g>
				<defs>
					<rect id="SVGID_00000163753035942408648740000010090413639096150666_" x="322.7" y="477.8" width="518.4" height="291.5"/>
				</defs>
				<clipPath id="SVGID_00000091698242982338155780000005601664963296010927_">
					<use xlink:href="#SVGID_00000163753035942408648740000010090413639096150666_"  style="overflow:visible;"/>
				</clipPath>
				<g style="clip-path:url(#SVGID_00000091698242982338155780000005601664963296010927_);">
					<g class="st5">
						<g>
							<defs>
								<rect id="SVGID_00000080179339241958215120000001898663520517630089_" x="500" y="555.1" width="106.9" height="214.1"/>
							</defs>
							<clipPath id="SVGID_00000172426791499994316740000018277409613469168807_">
								<use xlink:href="#SVGID_00000080179339241958215120000001898663520517630089_"  style="overflow:visible;"/>
							</clipPath>
							<g style="clip-path:url(#SVGID_00000172426791499994316740000018277409613469168807_);">
								<path class="st7" d="M500,639.4h106.9v129.8H500V639.4z"/>
								<path class="st7" d="M529.5,555.1v7h2.9c0,70.7-19.5,77.3-19.5,77.3H500h106.9h-12.8c0,0-19.5-6.6-19.5-77.3h2.9v-7h-24
									H529.5z"/>
							</g>
						</g>
					</g>
					<g class="st5">
						<g>
							<defs>
								<rect id="SVGID_00000113340905735664870590000002248537756601464241_" x="612.2" y="555.1" width="113.5" height="213.5"/>
							</defs>
							<clipPath id="SVGID_00000153696434821646939520000016217661326316621448_">
								<use xlink:href="#SVGID_00000113340905735664870590000002248537756601464241_"  style="overflow:visible;"/>
							</clipPath>
							<g style="clip-path:url(#SVGID_00000153696434821646939520000016217661326316621448_);">
								<path class="st7" d="M617.3,768.6h103.1l0-118.4H617.3V768.6z"/>
								<path class="st7" d="M711.1,638.5h14.6v3.2h-14.6V638.5z"/>
								<path class="st7" d="M612.2,638.5h14.6v3.2h-14.6V638.5z"/>
								<path class="st7" d="M699.2,613.1h14.6v3.2h-14.6V613.1z"/>
								<path class="st7" d="M624.1,613.1h14.6v3.2h-14.6V613.1z"/>
								<path class="st7" d="M687,594h14.6v3.2H687V594z"/>
								<path class="st7" d="M636.2,594h14.6v3.2h-14.6V594z"/>
								<path class="st7" d="M675.2,565.5h14.6v3.2h-14.6V565.5z"/>
								<path class="st7" d="M648.1,565.5h14.6v3.2h-14.6V565.5z"/>
								<path class="st7" d="M617.3,650.2l103.1,0v-8.6H617.3V650.2z"/>
								<path class="st7" d="M626.7,641.7h84.3l0-25.4h-84.3V641.7z"/>
								<path class="st7" d="M638.6,616.2h60.5v-19h-60.5V616.2z"/>
								<path class="st7" d="M650.8,597.2H687v-28.5h-36.2V597.2z"/>
								<path class="st7" d="M662.6,555.1h12.5v13.5h-12.5V555.1z"/>
							</g>
						</g>
					</g>
					<g class="st5">
						<g>
							<defs>
								<rect id="SVGID_00000139985945636246078860000006443634783808594567_" x="375.7" y="555.8" width="113.4" height="213.5"/>
							</defs>
							<clipPath id="SVGID_00000011007112248113766120000001441797608424491701_">
								<use xlink:href="#SVGID_00000139985945636246078860000006443634783808594567_"  style="overflow:visible;"/>
							</clipPath>
							<g style="clip-path:url(#SVGID_00000011007112248113766120000001441797608424491701_);">
								<path class="st7" d="M380.9,769.3H484V650.9H380.9V769.3z"/>
								<path class="st7" d="M474.6,639.1h14.6v3.2h-14.6V639.1z"/>
								<path class="st7" d="M375.7,639.1h14.6v3.2h-14.6V639.1z"/>
								<path class="st7" d="M462.7,613.7h14.6v3.2h-14.6V613.7z"/>
								<path class="st7" d="M387.6,613.7h14.6v3.2h-14.6V613.7z"/>
								<path class="st7" d="M450.5,594.7h14.6v3.2h-14.6V594.7z"/>
								<path class="st7" d="M399.8,594.7h14.6v3.2h-14.6V594.7z"/>
								<path class="st7" d="M438.7,566.1h14.6v3.2h-14.6V566.1z"/>
								<path class="st7" d="M411.6,566.1h14.6v3.2h-14.6V566.1z"/>
								<path class="st7" d="M380.9,650.9l103.1,0v-8.6H380.9V650.9z"/>
								<path class="st7" d="M390.3,642.3h84.3v-25.4h-84.3V642.3z"/>
								<path class="st7" d="M402.2,616.9h60.5v-19h-60.5V616.9z"/>
								<path class="st7" d="M414.4,597.8h36.2v-28.5h-36.2V597.8z"/>
								<path class="st7" d="M426.2,555.8h12.5v13.5h-12.5V555.8z"/>
							</g>
						</g>
					</g>
					<g class="st5">
						<g>
							<defs>
								<rect id="SVGID_00000157302883142556555450000006783506682635822769_" x="728.3" y="554.8" width="112.8" height="214.4"/>
							</defs>
							<clipPath id="SVGID_00000088108045925313675810000013216782448866205093_">
								<use xlink:href="#SVGID_00000157302883142556555450000006783506682635822769_"  style="overflow:visible;"/>
							</clipPath>
							<g style="clip-path:url(#SVGID_00000088108045925313675810000013216782448866205093_);">
								<path class="st7" d="M728.3,596.7v172.5h112.8V596.7h-37.8v-22.4h-18.6h-18.6v22.4H728.3z"/>
								<path class="st7" d="M762.8,573.4c0-2.6,2.1-4.7,4.7-4.7c2.6,0,4.7,2.1,4.7,4.7s-2.1,4.7-4.7,4.7
									C764.9,578.1,762.8,576,762.8,573.4"/>
								<path class="st7" d="M797.3,573.4c0-2.6,2.1-4.7,4.7-4.7c2.6,0,4.7,2.1,4.7,4.7s-2.1,4.7-4.7,4.7
									C799.3,578.1,797.3,576,797.3,573.4"/>
								<path class="st7" d="M769,570.6c0-8.7,7-15.7,15.7-15.7c8.7,0,15.7,7,15.7,15.7c0,8.7-7,15.7-15.7,15.7
									C776,586.3,769,579.3,769,570.6"/>
							</g>
						</g>
					</g>
					<g class="st5">
						<g>
							<defs>
								<rect id="SVGID_00000116927454775950912360000015800032697459252618_" x="258.9" y="554.8" width="112.8" height="214.4"/>
							</defs>
							<clipPath id="SVGID_00000043438356918383599450000000631516343284322194_">
								<use xlink:href="#SVGID_00000116927454775950912360000015800032697459252618_"  style="overflow:visible;"/>
							</clipPath>
							<g style="clip-path:url(#SVGID_00000043438356918383599450000000631516343284322194_);">
								<path class="st7" d="M258.9,596.7v172.5h112.8V596.7H334v-22.4h-18.6h-18.6v22.4H258.9z"/>
								<path class="st7" d="M327.8,573.4c0-2.6,2.1-4.7,4.7-4.7c2.6,0,4.7,2.1,4.7,4.7s-2.1,4.7-4.7,4.7
									C329.9,578.1,327.8,576,327.8,573.4"/>
								<path class="st7" d="M299.6,570.6c0-8.7,7-15.7,15.7-15.7c8.7,0,15.7,7,15.7,15.7c0,8.7-7,15.7-15.7,15.7
									C306.6,586.3,299.6,579.3,299.6,570.6"/>
							</g>
						</g>
					</g>
					<g class="st5">
						<g>
							<defs>
								<path id="SVGID_00000081645730533711973000000016130300880656413872_" d="M578.3,622.6L578.3,622.6z"/>
							</defs>
							<clipPath id="SVGID_00000018959352263195389600000004394847477717904830_">
								<use xlink:href="#SVGID_00000081645730533711973000000016130300880656413872_"  style="overflow:visible;"/>
							</clipPath>
						</g>
					</g>
					<g class="st5">
						<g>
							<defs>
								<path id="SVGID_00000143606563949539400750000017614858216720288667_" d="M578.3,623.5L578.3,623.5z"/>
							</defs>
							<clipPath id="SVGID_00000168088090648873574870000007018403975958553005_">
								<use xlink:href="#SVGID_00000143606563949539400750000017614858216720288667_"  style="overflow:visible;"/>
							</clipPath>
						</g>
					</g>
					<path class="st12" d="M293.4,517.5c15.7,9.2,455.3,0.8,566.7-39.7"/>
					<path class="st12" d="M293.4,507.7c15.7,9.2,455.3,0.8,566.7-39.7"/>
					<g class="st13">
						<g>
							<defs>
								<rect id="SVGID_00000065033819207643749780000012556015632930344120_" x="592.1" y="511.7" width="13.9" height="2.8"/>
							</defs>
							<clipPath id="SVGID_00000120524008789564617360000009699484031977342345_">
								<use xlink:href="#SVGID_00000065033819207643749780000012556015632930344120_"  style="overflow:visible;"/>
							</clipPath>
							<g style="clip-path:url(#SVGID_00000120524008789564617360000009699484031977342345_);">
								<path class="st15" d="M592.1,512.6l13.7-1l0.1,1.8l-13.7,1L592.1,512.6z"/>
							</g>
						</g>
					</g>
					<g class="st13">
						<g>
							<defs>
								<rect id="SVGID_00000155827254119175567420000015375512496601209238_" x="591.4" y="502" width="13.9" height="2.8"/>
							</defs>
							<clipPath id="SVGID_00000155143690399086768830000018293755957602403750_">
								<use xlink:href="#SVGID_00000155827254119175567420000015375512496601209238_"  style="overflow:visible;"/>
							</clipPath>
							<g style="clip-path:url(#SVGID_00000155143690399086768830000018293755957602403750_);">
								<path class="st15" d="M591.4,502.9l13.7-1l0.1,1.8l-13.7,1L591.4,502.9z"/>
							</g>
						</g>
					</g>
					<g class="st13">
						<g>
							<defs>
								<rect id="SVGID_00000147937075281627105850000009418774708303388349_" x="753.4" y="496.5" width="13.9" height="3.5"/>
							</defs>
							<clipPath id="SVGID_00000054241809949704472610000004499097025227880882_">
								<use xlink:href="#SVGID_00000147937075281627105850000009418774708303388349_"  style="overflow:visible;"/>
							</clipPath>
							<g style="clip-path:url(#SVGID_00000054241809949704472610000004499097025227880882_);">
								<path class="st15" d="M753.4,498.2l13.7-1.7l0.2,1.8l-13.7,1.7L753.4,498.2z"/>
							</g>
						</g>
					</g>
					<g class="st13">
						<g>
							<defs>
								<rect id="SVGID_00000180328485227559382780000004429847043264107443_" x="752.2" y="486.8" width="13.9" height="3.5"/>
							</defs>
							<clipPath id="SVGID_00000169532762218436636120000010758736669180143011_">
								<use xlink:href="#SVGID_00000180328485227559382780000004429847043264107443_"  style="overflow:visible;"/>
							</clipPath>
							<g style="clip-path:url(#SVGID_00000169532762218436636120000010758736669180143011_);">
								<path class="st15" d="M752.2,488.5l13.7-1.7l0.2,1.8l-13.7,1.7L752.2,488.5z"/>
							</g>
						</g>
					</g>
					<g class="st13">
						<g>
							<defs>
								<rect id="SVGID_00000159436681039487252470000010391111750887663526_" x="344.3" y="519.6" width="13.8" height="2"/>
							</defs>
							<clipPath id="SVGID_00000089538931169073685840000014626523563045675674_">
								<use xlink:href="#SVGID_00000159436681039487252470000010391111750887663526_"  style="overflow:visible;"/>
							</clipPath>
							<g style="clip-path:url(#SVGID_00000089538931169073685840000014626523563045675674_);">
								<path class="st15" d="M344.3,519.6l13.8,0.1l0,1.8l-13.8-0.1L344.3,519.6z"/>
							</g>
						</g>
					</g>
					<g class="st13">
						<g>
							<defs>
								<rect id="SVGID_00000065769501479487399540000009964244459085173140_" x="344.4" y="509.9" width="13.8" height="2"/>
							</defs>
							<clipPath id="SVGID_00000029732345835905838020000016618641678741082030_">
								<use xlink:href="#SVGID_00000065769501479487399540000009964244459085173140_"  style="overflow:visible;"/>
							</clipPath>
							<g style="clip-path:url(#SVGID_00000029732345835905838020000016618641678741082030_);">
								<path class="st15" d="M344.4,509.9l13.8,0.1l0,1.8l-13.8-0.1L344.4,509.9z"/>
							</g>
						</g>
					</g>
				</g>
			</g>
		</g>
	</g>
</g>
<g class="st1">
	<g>
		<g id="Layer-1_00000115479767035567463060000015917934820387312275_">
			<defs>
				
					<filter id="Adobe_OpacityMaskFilter_00000137836443132467126790000018057527924913642670_" filterUnits="userSpaceOnUse" x="-205.3" y="471.2" width="518.4" height="291.5">
					<feColorMatrix  type="matrix" values="1 0 0 0 0  0 1 0 0 0  0 0 1 0 0  0 0 0 1 0"/>
				</filter>
			</defs>
			
				<mask maskUnits="userSpaceOnUse" x="-205.3" y="471.2" width="518.4" height="291.5" id="ma0_00000052792609076258517620000007464318226661896355_">
				
					<g transform="matrix(25.773585,0,0,17.066668,0,0)" style="filter:url(#Adobe_OpacityMaskFilter_00000137836443132467126790000018057527924913642670_);">
					
						<use xlink:href="#im1"  width="53" height="45" x="-26.5" y="-22.5" transform="matrix(0.3795 0 0 0.3795 2.0933 36.1492)" style="overflow:visible;"/>
				</g>
			</mask>
			<g class="st36">
				<g transform="matrix(25.773585,0,0,17.066668,0,0)">
					<g transform="matrix(1 0 0 1 0 0)">
						
							<use xlink:href="#im2"  width="53" height="45" x="-26.5" y="-22.5" transform="matrix(0.3795 0 0 0.3795 2.0933 36.1492)" style="overflow:visible;"/>
					</g>
				</g>
			</g>
			<g>
				<defs>
					<rect id="SVGID_00000108288642224437061100000017301837913370027158_" x="-195.5" y="477.7" width="518.4" height="291.5"/>
				</defs>
				<clipPath id="SVGID_00000121963511918720943330000014036277458028630161_">
					<use xlink:href="#SVGID_00000108288642224437061100000017301837913370027158_"  style="overflow:visible;"/>
				</clipPath>
				<g style="clip-path:url(#SVGID_00000121963511918720943330000014036277458028630161_);">
					<g class="st5">
						<g>
							<defs>
								<rect id="SVGID_00000136370385944785934330000015138519773464125322_" x="38.8" y="555" width="106.9" height="214.1"/>
							</defs>
							<clipPath id="SVGID_00000178184333060090712590000002002397203804030859_">
								<use xlink:href="#SVGID_00000136370385944785934330000015138519773464125322_"  style="overflow:visible;"/>
							</clipPath>
							<g style="clip-path:url(#SVGID_00000178184333060090712590000002002397203804030859_);">
								<path class="st7" d="M145.7,769.2H38.8V639.3h106.9V769.2z"/>
								<path class="st7" d="M92.2,555h-24v7h2.9c0,70.7-19.5,77.3-19.5,77.3H38.8h106.9h-12.8c0,0-19.5-6.6-19.5-77.3h2.9v-7H92.2z
									"/>
							</g>
						</g>
					</g>
					<g class="st5">
						<g>
							<defs>
								<rect id="SVGID_00000133496975432954612560000001919422006394100401_" x="-80" y="555" width="113.5" height="213.5"/>
							</defs>
							<clipPath id="SVGID_00000180333796850819442850000004051061130252247459_">
								<use xlink:href="#SVGID_00000133496975432954612560000001919422006394100401_"  style="overflow:visible;"/>
							</clipPath>
							<g style="clip-path:url(#SVGID_00000180333796850819442850000004051061130252247459_);">
								<path class="st7" d="M28.3,650.1H-74.8l0,118.4H28.3V650.1z"/>
								<path class="st7" d="M-65.4,641.6H-80v-3.2h14.6V641.6z"/>
								<path class="st7" d="M33.5,641.6H18.9v-3.2h14.6V641.6z"/>
								<path class="st7" d="M-53.5,616.1h-14.6v-3.2h14.6V616.1z"/>
								<path class="st7" d="M21.6,616.1H7v-3.2h14.6V616.1z"/>
								<path class="st7" d="M-41.3,597.1h-14.6v-3.2h14.6V597.1z"/>
								<path class="st7" d="M9.4,597.1H-5.2v-3.2H9.4V597.1z"/>
								<path class="st7" d="M-29.5,568.6h-14.6v-3.2h14.6V568.6z"/>
								<path class="st7" d="M-2.4,568.6H-17v-3.2h14.6V568.6z"/>
								<path class="st7" d="M28.3,641.6H-74.8v8.6l103.1,0V641.6z"/>
								<path class="st7" d="M18.9,616.1h-84.3l0,25.4h84.3V616.1z"/>
								<path class="st7" d="M7,597.1h-60.5v19H7V597.1z"/>
								<path class="st7" d="M-5.2,568.6h-36.2v28.5h36.2V568.6z"/>
								<path class="st7" d="M-17,568.6h-12.5V555H-17V568.6z"/>
							</g>
						</g>
					</g>
					<g class="st5">
						<g>
							<defs>
								<rect id="SVGID_00000163785067290715816010000014983630573559213747_" x="156.5" y="555.7" width="113.4" height="213.5"/>
							</defs>
							<clipPath id="SVGID_00000026843380430656789410000002810317230819123086_">
								<use xlink:href="#SVGID_00000163785067290715816010000014983630573559213747_"  style="overflow:visible;"/>
							</clipPath>
							<g style="clip-path:url(#SVGID_00000026843380430656789410000002810317230819123086_);">
								<path class="st7" d="M264.8,650.8H161.6v118.4h103.1V650.8z"/>
								<path class="st7" d="M171,642.2h-14.6V639H171V642.2z"/>
								<path class="st7" d="M269.9,642.2h-14.6V639h14.6V642.2z"/>
								<path class="st7" d="M182.9,616.8h-14.6v-3.2h14.6V616.8z"/>
								<path class="st7" d="M258,616.8h-14.6v-3.2H258V616.8z"/>
								<path class="st7" d="M195.1,597.7h-14.6v-3.2h14.6V597.7z"/>
								<path class="st7" d="M245.8,597.7h-14.6v-3.2h14.6V597.7z"/>
								<path class="st7" d="M206.9,569.2h-14.6V566h14.6V569.2z"/>
								<path class="st7" d="M234,569.2h-14.6V566H234V569.2z"/>
								<path class="st7" d="M264.8,642.2H161.6v8.6l103.1,0V642.2z"/>
								<path class="st7" d="M255.3,616.8H171v25.4h84.3V616.8z"/>
								<path class="st7" d="M243.4,597.7h-60.5v19h60.5V597.7z"/>
								<path class="st7" d="M231.3,569.2h-36.2v28.5h36.2V569.2z"/>
								<path class="st7" d="M219.4,569.2h-12.5v-13.5h12.5V569.2z"/>
							</g>
						</g>
					</g>
					<g class="st5">
						<g>
							<defs>
								<rect id="SVGID_00000161625575579628713670000014638767149177340803_" x="-195.5" y="554.7" width="112.8" height="214.4"/>
							</defs>
							<clipPath id="SVGID_00000142879925677621296980000009536476379241334932_">
								<use xlink:href="#SVGID_00000161625575579628713670000014638767149177340803_"  style="overflow:visible;"/>
							</clipPath>
							<g style="clip-path:url(#SVGID_00000142879925677621296980000009536476379241334932_);">
								<path class="st7" d="M-120.4,596.6v-22.4h-18.6h-18.6v22.4h-37.8v172.5h112.8V596.6H-120.4z"/>
								<path class="st7" d="M-117.2,573.3c0,2.6-2.1,4.7-4.7,4.7c-2.6,0-4.7-2.1-4.7-4.7s2.1-4.7,4.7-4.7
									C-119.3,568.6-117.2,570.7-117.2,573.3"/>
								<path class="st7" d="M-151.6,573.3c0,2.6-2.1,4.7-4.7,4.7c-2.6,0-4.7-2.1-4.7-4.7s2.1-4.7,4.7-4.7
									C-153.7,568.6-151.6,570.7-151.6,573.3"/>
								<path class="st7" d="M-123.3,570.5c0,8.7-7,15.7-15.7,15.7c-8.7,0-15.7-7-15.7-15.7s7-15.7,15.7-15.7
									C-130.4,554.7-123.3,561.8-123.3,570.5"/>
							</g>
						</g>
					</g>
					<g class="st5">
						<g>
							<defs>
								<rect id="SVGID_00000119116814397188172260000008274925708243279756_" x="273.9" y="554.7" width="112.8" height="214.4"/>
							</defs>
							<clipPath id="SVGID_00000181780402064292352230000002652337332394427277_">
								<use xlink:href="#SVGID_00000119116814397188172260000008274925708243279756_"  style="overflow:visible;"/>
							</clipPath>
							<g style="clip-path:url(#SVGID_00000181780402064292352230000002652337332394427277_);">
								<path class="st7" d="M349,596.6v-22.4h-18.6h-18.6v22.4h-37.8v172.5h112.8V596.6H349z"/>
								<path class="st7" d="M317.8,573.3c0,2.6-2.1,4.7-4.7,4.7s-4.7-2.1-4.7-4.7s2.1-4.7,4.7-4.7S317.8,570.7,317.8,573.3"/>
								<path class="st7" d="M346.1,570.5c0,8.7-7,15.7-15.7,15.7c-8.7,0-15.7-7-15.7-15.7s7-15.7,15.7-15.7
									C339,554.7,346.1,561.8,346.1,570.5"/>
							</g>
						</g>
					</g>
					<g class="st5">
						<g>
							<defs>
								<path id="SVGID_00000165224247358029243870000004556931065840398254_" d="M67.3,622.5L67.3,622.5z"/>
							</defs>
							<clipPath id="SVGID_00000147196062168446744980000001805510678726007463_">
								<use xlink:href="#SVGID_00000165224247358029243870000004556931065840398254_"  style="overflow:visible;"/>
							</clipPath>
						</g>
					</g>
					<g class="st5">
						<g>
							<defs>
								<path id="SVGID_00000076562918958805990800000006464014475314949507_" d="M67.3,623.4L67.3,623.4z"/>
							</defs>
							<clipPath id="SVGID_00000049909371250137997690000016610538325591354272_">
								<use xlink:href="#SVGID_00000076562918958805990800000006464014475314949507_"  style="overflow:visible;"/>
							</clipPath>
						</g>
					</g>
					<path class="st12" d="M-214.5,477.7c111.4,40.5,551,48.9,566.7,39.7"/>
					<path class="st12" d="M-214.5,467.9c111.4,40.5,551,48.9,566.7,39.7"/>
					<g class="st13">
						<g>
							<defs>
								<rect id="SVGID_00000164473085949616602630000009621942411431316408_" x="39.7" y="511.6" width="13.9" height="2.8"/>
							</defs>
							<clipPath id="SVGID_00000087395754029099711480000010708546727302857386_">
								<use xlink:href="#SVGID_00000164473085949616602630000009621942411431316408_"  style="overflow:visible;"/>
							</clipPath>
							<g style="clip-path:url(#SVGID_00000087395754029099711480000010708546727302857386_);">
								<path class="st15" d="M53.4,514.4l-13.7-1l0.1-1.8l13.7,1L53.4,514.4z"/>
							</g>
						</g>
					</g>
					<g class="st13">
						<g>
							<defs>
								<rect id="SVGID_00000179615910306396666790000018080361195705224587_" x="40.4" y="501.9" width="13.9" height="2.8"/>
							</defs>
							<clipPath id="SVGID_00000084509729774351485120000012381905195579833261_">
								<use xlink:href="#SVGID_00000179615910306396666790000018080361195705224587_"  style="overflow:visible;"/>
							</clipPath>
							<g style="clip-path:url(#SVGID_00000084509729774351485120000012381905195579833261_);">
								<path class="st15" d="M54.1,504.7l-13.7-1l0.1-1.8l13.7,1L54.1,504.7z"/>
							</g>
						</g>
					</g>
					<g class="st13">
						<g>
							<defs>
								<rect id="SVGID_00000171685961815718618770000007121632850648066186_" x="-121.6" y="496.4" width="13.9" height="3.5"/>
							</defs>
							<clipPath id="SVGID_00000042714938294243452550000003036230635869363118_">
								<use xlink:href="#SVGID_00000171685961815718618770000007121632850648066186_"  style="overflow:visible;"/>
							</clipPath>
							<g style="clip-path:url(#SVGID_00000042714938294243452550000003036230635869363118_);">
								<path class="st15" d="M-108,499.9l-13.7-1.7l0.2-1.8l13.7,1.7L-108,499.9z"/>
							</g>
						</g>
					</g>
					<g class="st13">
						<g>
							<defs>
								<rect id="SVGID_00000170963996459129397510000009767927714644014767_" x="-120.4" y="486.7" width="13.9" height="3.5"/>
							</defs>
							<clipPath id="SVGID_00000139268702562325214930000007665256390996894633_">
								<use xlink:href="#SVGID_00000170963996459129397510000009767927714644014767_"  style="overflow:visible;"/>
							</clipPath>
							<g style="clip-path:url(#SVGID_00000139268702562325214930000007665256390996894633_);">
								<path class="st15" d="M-106.8,490.2l-13.7-1.7l0.2-1.8l13.7,1.7L-106.8,490.2z"/>
							</g>
						</g>
					</g>
					<g class="st13">
						<g>
							<defs>
								<rect id="SVGID_00000029751115836783169290000016408712875107111578_" x="287.6" y="519.5" width="13.8" height="2"/>
							</defs>
							<clipPath id="SVGID_00000005245608887997114000000001087084572122114695_">
								<use xlink:href="#SVGID_00000029751115836783169290000016408712875107111578_"  style="overflow:visible;"/>
							</clipPath>
							<g style="clip-path:url(#SVGID_00000005245608887997114000000001087084572122114695_);">
								<path class="st15" d="M301.3,521.4l-13.8,0.1l0-1.8l13.8-0.1L301.3,521.4z"/>
							</g>
						</g>
					</g>
					<g class="st13">
						<g>
							<defs>
								<rect id="SVGID_00000033361348323885644090000006007723868023211906_" x="287.5" y="509.8" width="13.8" height="2"/>
							</defs>
							<clipPath id="SVGID_00000027583817066898650220000014111204579283090054_">
								<use xlink:href="#SVGID_00000033361348323885644090000006007723868023211906_"  style="overflow:visible;"/>
							</clipPath>
							<g style="clip-path:url(#SVGID_00000027583817066898650220000014111204579283090054_);">
								<path class="st15" d="M301.2,511.6l-13.8,0.1l0-1.8l13.8-0.1L301.2,511.6z"/>
							</g>
						</g>
					</g>
				</g>
			</g>
		</g>
	</g>
</g>
<line class="st12" x1="822.3" y1="478" x2="866" y2="476.9"/>
<line class="st12" x1="841.1" y1="483.5" x2="850.9" y2="483.1"/>
</svg>
