<?xml version="1.0" encoding="utf-8"?>
<!-- Generator: Adobe Illustrator 27.0.0, SVG Export Plug-In . SVG Version: 6.00 Build 0)  -->
<svg version="1.1" id="Layer_1" xmlns="http://www.w3.org/2000/svg" xmlns:xlink="http://www.w3.org/1999/xlink" x="0px" y="0px"
	 viewBox="0 0 459.2 474.7" style="enable-background:new 0 0 459.2 474.7;" xml:space="preserve">
<style type="text/css">
	.st0{fill:none;}
	.st1{fill:none;stroke:#000000;stroke-width:5.000000e-02;stroke-miterlimit:10;}
	.st2{fill:#666666;}
	.st3{fill:none;stroke:#000000;stroke-miterlimit:10;}
	.st4{stroke:#000000;stroke-miterlimit:10;}
	.st5{stroke:#000000;stroke-width:1;stroke-miterlimit:9.9996;}
	.st6{stroke:#000000;stroke-width:1;stroke-miterlimit:10.0002;}
	.st7{stroke:#000000;stroke-width:0.9999;stroke-miterlimit:9.9995;}
	.st8{stroke:#000000;stroke-width:1;stroke-miterlimit:10.0004;}
	.st9{stroke:#000000;stroke-width:1;stroke-miterlimit:10.0003;}
	.st10{stroke:#000000;stroke-width:1;stroke-miterlimit:9.9997;}
	.st11{fill:#73272D;stroke:#000000;stroke-width:0.5;stroke-miterlimit:9.9999;}
	.st12{fill:#73272D;stroke:#000000;stroke-width:0.5;stroke-miterlimit:10;}
	.st13{fill:none;stroke:#000000;stroke-width:0.5;stroke-miterlimit:10;}
	.st14{fill:#FFFFCC;stroke:#000000;stroke-width:4.999943e-02;stroke-miterlimit:9.9999;}
	.st15{fill:none;stroke:#000000;stroke-width:0.25;stroke-miterlimit:10;}
	.st16{fill:#73272D;stroke:#000000;stroke-width:0.5;stroke-miterlimit:10.0003;}
	.st17{fill:#FFFFCC;stroke:#000000;stroke-width:5.000138e-02;stroke-miterlimit:10.0003;}
	.st18{fill:#A67C6C;}
	.st19{clip-path:url(#SVGID_00000103983926648410478540000008444324190903200436_);}
	.st20{fill:#C69C6D;stroke:#000000;stroke-width:0.75;stroke-miterlimit:10;}
	.st21{fill:#C69C6D;stroke:#000000;stroke-width:0.75;stroke-miterlimit:10.0004;}
	.st22{fill:#C69C6D;stroke:#000000;stroke-width:0.75;stroke-miterlimit:10.0003;}
	.st23{fill:#5C4837;stroke:#000000;stroke-width:0.75;stroke-miterlimit:10;}
	
		.st24{fill:url(#SVGID_00000093159076407362108120000011558317979114405769_);stroke:#000000;stroke-width:0.25;stroke-miterlimit:10;}
	
		.st25{fill:url(#SVGID_00000078725500423656933650000003918827310823503273_);stroke:#000000;stroke-width:0.25;stroke-miterlimit:10;}
	
		.st26{fill:url(#SVGID_00000133528240715893368860000005060829504832917685_);stroke:#000000;stroke-width:0.25;stroke-miterlimit:10;}
	
		.st27{fill:url(#SVGID_00000057119925201587005700000016214972120189641629_);stroke:#000000;stroke-width:0.25;stroke-miterlimit:10;}
	
		.st28{fill:url(#SVGID_00000078032749038627094510000006682468427281613715_);stroke:#000000;stroke-width:0.25;stroke-miterlimit:10;}
	
		.st29{fill:url(#SVGID_00000119837736137542495520000012275209674398732452_);stroke:#000000;stroke-width:0.25;stroke-miterlimit:10;}
</style>
<pattern  y="474.7" width="8.5" height="12.9" patternUnits="userSpaceOnUse" id="SVGID_0000000740986474558147721" viewBox="6.8 -12.9 8.5 12.9" style="overflow:visible;">
	<g>
		<rect x="6.8" y="-12.9" class="st0" width="8.5" height="12.9"/>
		<g>
			<rect x="6.8" y="-12.9" class="st0" width="8.5" height="12.9"/>
			<g>
				<rect x="6.8" y="-12.9" class="st0" width="8.5" height="12.9"/>
				<rect x="5.1" y="-12.8" class="st1" width="8.4" height="2.5"/>
				<rect x="13.6" y="-12.8" class="st1" width="8.4" height="2.5"/>
				<rect x="1.7" y="-10.3" class="st1" width="8.4" height="2.5"/>
				<rect x="10.2" y="-10.3" class="st1" width="8.4" height="2.5"/>
				<rect x="6.8" y="-7.7" class="st1" width="8.4" height="2.5"/>
				<rect x="3.4" y="-5.1" class="st1" width="8.4" height="2.5"/>
				<rect x="11.9" y="-5.1" class="st1" width="8.4" height="2.5"/>
				<rect x="0" y="-2.5" class="st1" width="8.4" height="2.5"/>
				<rect x="8.5" y="-2.5" class="st1" width="8.4" height="2.5"/>
			</g>
		</g>
	</g>
</pattern>
<pattern  y="474.7" width="8.5" height="12.9" patternUnits="userSpaceOnUse" id="SVGID_0000001893901784084593235" viewBox="6.8 -12.9 8.5 12.9" style="overflow:visible;">
	<g>
		<rect x="6.8" y="-12.9" class="st0" width="8.5" height="12.9"/>
		<g>
			<rect x="6.8" y="-12.9" class="st0" width="8.5" height="12.9"/>
			<g>
				<rect x="6.8" y="-12.9" class="st0" width="8.5" height="12.9"/>
				<rect x="5.1" y="-12.8" class="st1" width="8.4" height="2.5"/>
				<rect x="13.6" y="-12.8" class="st1" width="8.4" height="2.5"/>
				<rect x="1.7" y="-10.3" class="st1" width="8.4" height="2.5"/>
				<rect x="10.2" y="-10.3" class="st1" width="8.4" height="2.5"/>
				<rect x="6.8" y="-7.7" class="st1" width="8.4" height="2.5"/>
				<rect x="3.4" y="-5.1" class="st1" width="8.4" height="2.5"/>
				<rect x="11.9" y="-5.1" class="st1" width="8.4" height="2.5"/>
				<rect x="0" y="-2.5" class="st1" width="8.4" height="2.5"/>
				<rect x="8.5" y="-2.5" class="st1" width="8.4" height="2.5"/>
			</g>
		</g>
	</g>
</pattern>
<pattern  y="474.7" width="8.5" height="12.9" patternUnits="userSpaceOnUse" id="SVGID_0000005065707915224749793" viewBox="6.8 -12.9 8.5 12.9" style="overflow:visible;">
	<g>
		<rect x="6.8" y="-12.9" class="st0" width="8.5" height="12.9"/>
		<g>
			<rect x="6.8" y="-12.9" class="st0" width="8.5" height="12.9"/>
			<g>
				<rect x="6.8" y="-12.9" class="st0" width="8.5" height="12.9"/>
				<rect x="5.1" y="-12.8" class="st1" width="8.4" height="2.5"/>
				<rect x="13.6" y="-12.8" class="st1" width="8.4" height="2.5"/>
				<rect x="1.7" y="-10.3" class="st1" width="8.4" height="2.5"/>
				<rect x="10.2" y="-10.3" class="st1" width="8.4" height="2.5"/>
				<rect x="6.8" y="-7.7" class="st1" width="8.4" height="2.5"/>
				<rect x="3.4" y="-5.1" class="st1" width="8.4" height="2.5"/>
				<rect x="11.9" y="-5.1" class="st1" width="8.4" height="2.5"/>
				<rect x="0" y="-2.5" class="st1" width="8.4" height="2.5"/>
				<rect x="8.5" y="-2.5" class="st1" width="8.4" height="2.5"/>
			</g>
		</g>
	</g>
</pattern>
<pattern  y="474.7" width="8.5" height="12.9" patternUnits="userSpaceOnUse" id="SVGID_0000007010788075502913937" viewBox="6.8 -12.9 8.5 12.9" style="overflow:visible;">
	<g>
		<rect x="6.8" y="-12.9" class="st0" width="8.5" height="12.9"/>
		<g>
			<rect x="6.8" y="-12.9" class="st0" width="8.5" height="12.9"/>
			<g>
				<rect x="6.8" y="-12.9" class="st0" width="8.5" height="12.9"/>
				<rect x="5.1" y="-12.8" class="st1" width="8.4" height="2.5"/>
				<rect x="13.6" y="-12.8" class="st1" width="8.4" height="2.5"/>
				<rect x="1.7" y="-10.3" class="st1" width="8.4" height="2.5"/>
				<rect x="10.2" y="-10.3" class="st1" width="8.4" height="2.5"/>
				<rect x="6.8" y="-7.7" class="st1" width="8.4" height="2.5"/>
				<rect x="3.4" y="-5.1" class="st1" width="8.4" height="2.5"/>
				<rect x="11.9" y="-5.1" class="st1" width="8.4" height="2.5"/>
				<rect x="0" y="-2.5" class="st1" width="8.4" height="2.5"/>
				<rect x="8.5" y="-2.5" class="st1" width="8.4" height="2.5"/>
			</g>
		</g>
	</g>
</pattern>
<pattern  y="474.7" width="8.5" height="12.9" patternUnits="userSpaceOnUse" id="SVGID_0000017026733277347692679" viewBox="6.8 -12.9 8.5 12.9" style="overflow:visible;">
	<g>
		<rect x="6.8" y="-12.9" class="st0" width="8.5" height="12.9"/>
		<g>
			<rect x="6.8" y="-12.9" class="st0" width="8.5" height="12.9"/>
			<g>
				<rect x="6.8" y="-12.9" class="st0" width="8.5" height="12.9"/>
				<rect x="5.1" y="-12.8" class="st1" width="8.4" height="2.5"/>
				<rect x="13.6" y="-12.8" class="st1" width="8.4" height="2.5"/>
				<rect x="1.7" y="-10.3" class="st1" width="8.4" height="2.5"/>
				<rect x="10.2" y="-10.3" class="st1" width="8.4" height="2.5"/>
				<rect x="6.8" y="-7.7" class="st1" width="8.4" height="2.5"/>
				<rect x="3.4" y="-5.1" class="st1" width="8.4" height="2.5"/>
				<rect x="11.9" y="-5.1" class="st1" width="8.4" height="2.5"/>
				<rect x="0" y="-2.5" class="st1" width="8.4" height="2.5"/>
				<rect x="8.5" y="-2.5" class="st1" width="8.4" height="2.5"/>
			</g>
		</g>
	</g>
</pattern>
<pattern  y="474.7" width="8.5" height="12.9" patternUnits="userSpaceOnUse" id="SVGID_0000017456708032676649231" viewBox="6.8 -12.9 8.5 12.9" style="overflow:visible;">
	<g>
		<rect x="6.8" y="-12.9" class="st0" width="8.5" height="12.9"/>
		<g>
			<rect x="6.8" y="-12.9" class="st0" width="8.5" height="12.9"/>
			<g>
				<rect x="6.8" y="-12.9" class="st0" width="8.5" height="12.9"/>
				<rect x="5.1" y="-12.8" class="st1" width="8.4" height="2.5"/>
				<rect x="13.6" y="-12.8" class="st1" width="8.4" height="2.5"/>
				<rect x="1.7" y="-10.3" class="st1" width="8.4" height="2.5"/>
				<rect x="10.2" y="-10.3" class="st1" width="8.4" height="2.5"/>
				<rect x="6.8" y="-7.7" class="st1" width="8.4" height="2.5"/>
				<rect x="3.4" y="-5.1" class="st1" width="8.4" height="2.5"/>
				<rect x="11.9" y="-5.1" class="st1" width="8.4" height="2.5"/>
				<rect x="0" y="-2.5" class="st1" width="8.4" height="2.5"/>
				<rect x="8.5" y="-2.5" class="st1" width="8.4" height="2.5"/>
			</g>
		</g>
	</g>
</pattern>
<g>
	
		<rect x="271" y="206.8" transform="matrix(0.1349 -0.9909 0.9909 0.1349 43.8681 533.2106)" class="st2" width="112.7" height="69.4"/>
	<polyline class="st2" points="355.6,33.2 323.4,162.1 300.5,181 369.3,190.4 352.4,166.1 355.6,33.2 	"/>
</g>
<g>
	<rect x="189.6" y="185" class="st2" width="84.2" height="102.2"/>
	<path class="st2" d="M231.8,118.7h-18.9v5.5h2.3c0,55.8-15.4,60.9-15.4,60.9h74.1h-10.1c0,0-15.4-5.2-15.4-60.9h2.3v-5.5H231.8
		L231.8,118.7z"/>
</g>
<g>
	
		<rect x="88.6" y="211.7" transform="matrix(0.9942 -0.1071 0.1071 0.9942 -26.9142 15.316)" class="st2" width="81.2" height="93.1"/>
	
		<rect x="78.8" y="206.8" transform="matrix(0.9942 -0.1071 0.1071 0.9942 -21.8031 10.2461)" class="st2" width="11.4" height="2.5"/>
	
		<rect x="156.2" y="198.6" transform="matrix(0.9942 -0.1071 0.1071 0.9942 -20.4749 18.4919)" class="st2" width="11.4" height="2.5"/>
	<rect x="86" y="186" transform="matrix(0.9942 -0.1071 0.1071 0.9942 -19.5256 10.9027)" class="st2" width="11.4" height="2.5"/>
	
		<rect x="144.7" y="179.7" transform="matrix(0.9942 -0.1071 0.1071 0.9942 -18.519 17.1484)" class="st2" width="11.4" height="2.5"/>
	
		<rect x="93.9" y="170" transform="matrix(0.9942 -0.1071 0.1071 0.9942 -17.7749 11.6581)" class="st2" width="11.4" height="2.5"/>
	
		<rect x="133.6" y="165.8" transform="matrix(0.9942 -0.1071 0.1071 0.9942 -17.0887 15.8794)" class="st2" width="11.4" height="2.5"/>
	
		<rect x="100.7" y="146.8" transform="matrix(0.9942 -0.1071 0.1071 0.9942 -15.2427 12.2539)" class="st2" width="11.4" height="2.5"/>
	
		<rect x="121.9" y="144.5" transform="matrix(0.9942 -0.1071 0.1071 0.9942 -14.8737 14.5104)" class="st2" width="11.4" height="2.5"/>
	
		<rect x="83.2" y="205.2" transform="matrix(0.9942 -0.1071 0.1071 0.9942 -21.6233 14.4536)" class="st2" width="81.2" height="6.7"/>
	
		<rect x="89.1" y="185.3" transform="matrix(0.9942 -0.1071 0.1071 0.9942 -20.2151 14.2195)" class="st2" width="66.3" height="20"/>
	
		<rect x="96.6" y="170.4" transform="matrix(0.9942 -0.1071 0.1071 0.9942 -18.3567 13.9125)" class="st2" width="47.5" height="14.9"/>
	
		<rect x="104.2" y="148.1" transform="matrix(0.9942 -0.1071 0.1071 0.9942 -16.3799 13.5947)" class="st2" width="28.4" height="22.4"/>
	
		<rect x="111.7" y="137.5" transform="matrix(0.9942 -0.1071 0.1071 0.9942 -14.6304 13.3183)" class="st2" width="9.9" height="10.7"/>
</g>
<g>
	
		<rect x="373.4" y="224.5" transform="matrix(0.2045 -0.9789 0.9789 0.2045 74.5936 621.9777)" class="st2" width="93.1" height="81.2"/>
	
		<rect x="391.7" y="197.9" transform="matrix(0.2045 -0.9789 0.9789 0.2045 113.279 546.695)" class="st2" width="2.5" height="11.4"/>
	
		<rect x="467.9" y="213.9" transform="matrix(0.2045 -0.9789 0.9789 0.2045 158.2456 633.9374)" class="st2" width="2.5" height="11.4"/>
	
		<rect x="405" y="180.2" transform="matrix(0.2045 -0.9789 0.9789 0.2045 141.1555 545.5737)" class="st2" width="2.5" height="11.4"/>
	
		<rect x="462.8" y="192.4" transform="matrix(0.2045 -0.9789 0.9789 0.2045 175.2611 611.8077)" class="st2" width="2.5" height="11.4"/>
	
		<rect x="417.5" y="167.6" transform="matrix(0.2045 -0.9789 0.9789 0.2045 163.5012 547.7448)" class="st2" width="2.5" height="11.4"/>
	
		<rect x="456.5" y="175.7" transform="matrix(0.2045 -0.9789 0.9789 0.2045 186.5999 592.4479)" class="st2" width="2.5" height="11.4"/>
	
		<rect x="431.2" y="147.5" transform="matrix(0.2045 -0.9789 0.9789 0.2045 194.0715 545.1437)" class="st2" width="2.5" height="11.4"/>
	
		<rect x="452" y="151.8" transform="matrix(0.2045 -0.9789 0.9789 0.2045 206.377 568.952)" class="st2" width="2.5" height="11.4"/>
	
		<rect x="426.8" y="175.6" transform="matrix(0.2045 -0.9789 0.9789 0.2045 130.6047 592.9683)" class="st2" width="6.7" height="81.2"/>
	
		<rect x="422.9" y="169.9" transform="matrix(0.2045 -0.9789 0.9789 0.2045 145.5774 585.338)" class="st2" width="20" height="66.3"/>
	
		<rect x="429" y="162.1" transform="matrix(0.2045 -0.9789 0.9789 0.2045 165.2239 575.1647)" class="st2" width="14.9" height="47.7"/>
	
		<rect x="429" y="153.5" transform="matrix(0.2045 -0.9789 0.9789 0.2045 186.0752 564.3104)" class="st2" width="22.4" height="28.4"/>
	
		<rect x="438.4" y="146.5" transform="matrix(0.2045 -0.9789 0.9789 0.2045 204.7525 554.8078)" class="st2" width="10.7" height="9.9"/>
</g>
<g>
	<polygon class="st2" points="26,196.2 22,181.3 9.6,184.5 -2.8,187.7 1.1,202.7 -24,209.3 6,324.2 81.1,304.6 51.1,189.6 	"/>
	<circle class="st2" cx="20.9" cy="180.9" r="3.2"/>
	<circle class="st2" cx="-2" cy="186.9" r="3.2"/>
	<circle class="st2" cx="8.9" cy="182" r="10.9"/>
</g>
<path class="st3" d="M348.1,290.2l-8.5-1.1v-0.4C342.5,289.2,345.2,289.6,348.1,290.2L348.1,290.2z"/>
<path class="st3" d="M401.7,303.3l-6-1.2l0.1-0.4C397.7,302.1,399.7,302.7,401.7,303.3z"/>
<g>
	<path class="st4" d="M83.7,330.8c-41.8-3.4-33.8,77.6-33.8,77.6h-7.8c0,0-6.9-68,25.7-75.9L83.7,330.8z"/>
	<path class="st3" d="M120.7,408.5c12.4-84.8-39.6-77.9-39.6-77.9"/>
</g>
<rect x="2.1" y="319" transform="matrix(0.9675 -0.2527 0.2527 0.9675 -80.6962 12.1669)" class="st5" width="9.8" height="2.5"/>
<rect x="1.7" y="291.2" transform="matrix(0.9675 -0.2527 0.2527 0.9675 -77.0545 10.6514)" class="st5" width="2.5" height="28.2"/>
<circle class="st4" cx="-1" cy="289.9" r="1.9"/>
<rect x="55.2" y="301.2" transform="matrix(0.9777 -0.2101 0.2101 0.9777 -62.2036 19.3675)" class="st6" width="9.8" height="2.5"/>
<rect x="55.4" y="273.4" transform="matrix(0.9777 -0.2101 0.2101 0.9777 -59.1409 18.3222)" class="st6" width="2.5" height="28.2"/>
<circle class="st4" cx="53.3" cy="271.9" r="1.9"/>
<rect x="115.9" y="287.5" transform="matrix(0.9901 -0.1407 0.1407 0.9901 -39.4349 19.869)" class="st7" width="9.8" height="2.5"/>
<rect x="117.1" y="259.4" transform="matrix(0.9901 -0.1407 0.1407 0.9901 -37.3125 19.3768)" class="st7" width="2.5" height="28.2"/>
<circle class="st4" cx="116.1" cy="257.8" r="1.9"/>
<rect x="227.8" y="277.8" class="st4" width="9.8" height="2.5"/>
<rect x="231.2" y="249.6" class="st4" width="2.5" height="28.2"/>
<circle class="st4" cx="232.5" cy="247.7" r="1.9"/>
<polygon class="st4" points="349.5,287.9 349.2,290.4 348.1,290.2 339.5,289.1 339.6,288.7 339.9,286.6 343.2,287 345.8,287.3 "/>
<rect x="332.3" y="271.9" transform="matrix(0.1349 -0.9909 0.9909 0.1349 28.9501 579.5819)" class="st8" width="28.2" height="2.5"/>
<circle class="st4" cx="348.6" cy="257.4" r="1.9"/>
<polygon class="st4" points="405.7,301.5 405.2,304 401.7,303.3 395.7,302.1 395.8,301.5 396.2,299.5 399.6,300.2 402.1,300.7 "/>
<rect x="389.6" y="285.4" transform="matrix(0.2045 -0.9789 0.9789 0.2045 40.5213 623.1857)" class="st9" width="28.2" height="2.5"/>
<circle class="st4" cx="406.9" cy="271.1" r="1.9"/>
<rect x="453.6" y="315.5" transform="matrix(0.3725 -0.928 0.928 0.3725 -11.8926 623.207)" class="st10" width="2.5" height="9.8"/>
<rect x="446.3" y="304.8" transform="matrix(0.3725 -0.928 0.928 0.3725 4.8507 619.3253)" class="st10" width="28.2" height="2.5"/>
<circle class="st4" cx="466.3" cy="291.2" r="1.9"/>
<polyline class="st3" points="1.9,296 57.4,280.2 115.7,264.7 173.9,253.7 230.8,250.8 288.7,253.2 345.2,264.1 401.9,278.8 
	462.5,297.4 "/>
<polyline class="st3" points="3.7,303.6 56.9,288.4 115.3,272.8 173.5,262 230.3,259 288.2,261.4 344.8,272.3 401.4,287 
	458.9,304.7 "/>
<polyline class="st3" points="3.7,313.8 56.9,298.5 115.3,283.1 173.5,272.2 230.3,269.2 288.2,271.6 344.8,282.5 401.4,297.2 
	458.9,314.9 "/>
<rect x="171" y="118.9" transform="matrix(0.9983 -5.808742e-02 5.808742e-02 0.9983 -8.7726 10.3995)" class="st11" width="6.9" height="74.5"/>
<path class="st12" d="M168.8,119.2c-4.6,0.2-3.5-5.4-3.5-5.4l13.3-0.8c0,0,1.8,5.5-2.9,5.8"/>
<path class="st13" d="M182.7,87.5c0,0,1.5,25.1-4.1,25.5"/>
<path class="st13" d="M158.2,88.9c0,0,1.4,25.1,7,24.8"/>
<path class="st12" d="M172.7,79.6c0,0,9.9,3.2,13.9,7.5l0.1,0.2l-32.4,1.9c3.6-4.7,13.1-9,13.1-9"/>
<circle class="st12" cx="169.9" cy="76.7" r="0.8"/>
<circle class="st12" cx="170.1" cy="79.9" r="2.5"/>
<polyline class="st12" points="183.6,221.7 182.2,199 171.4,199.6 172.7,222.2 "/>
<path class="st12" d="M183.2,224.7c0,0,1,1.2,1.1,3.2v-0.3l5.8,55.1l-17.1,1l-0.7-55.5c-0.1-2,0.8-3.1,0.8-3.1"/>
<ellipse transform="matrix(0.9983 -5.808742e-02 5.808742e-02 0.9983 -11.1417 10.6056)" class="st11" cx="176.9" cy="197" rx="7.1" ry="3.7"/>
<path class="st12" d="M186.1,222.3c0.1,1.1-4.2,3.5-7.5,3.7c-3.3,0.2-8-1.8-8.1-2.9c-0.1-1.1,4.7-1,7.9-1.2S186,221.2,186.1,222.3
	L186.1,222.3z"/>
<ellipse transform="matrix(0.9983 -5.808742e-02 5.808742e-02 0.9983 -6.0344 10.1636)" class="st14" cx="171.8" cy="108.9" rx="4.2" ry="4.7"/>
<path class="st15" d="M170.2,112.9c0,0,2.7,1,3.5-0.2c0.8-1.2-4.5-2.1-3.5-0.8c1,1.3,4,0.9,2.9-0.8c-1.1-1.6-3.6-1.2-2.7-0.5
	c0.9,0.7,4.7,0.5,3.1-0.8c-1.6-1.3-4.5-1.5-2.9-0.5c1.6,1,4.8,0.3,2.7-0.4c-2.1-0.8-5.3-1-2.6-0.9s5.2,1.4,2.7,0.2"/>
<g>
	
		<rect x="263.1" y="154.8" transform="matrix(6.818760e-02 -0.9977 0.9977 6.818760e-02 121.3553 446.3018)" class="st16" width="72.9" height="6.7"/>
	<path class="st12" d="M298.9,121.6c-4.5-0.3-2.7-5.7-2.7-5.7l13,0.9c0,0,1.1,5.6-3.5,5.3"/>
	<path class="st13" d="M316.1,92.5c0,0-1.6,24.6-7.1,24.3"/>
	<path class="st13" d="M292.2,90.9c0,0-1.8,24.6,3.7,25"/>
	<path class="st12" d="M307.4,83.6c0,0,9.2,4.3,12.6,9v0.2l-31.7-2.2c4.1-4.2,13.7-7.1,13.7-7.1"/>
	<circle class="st12" cx="305.1" cy="80.4" r="0.7"/>
	<circle class="st12" cx="304.8" cy="83.6" r="2.4"/>
	<polyline class="st12" points="300.5,223 301.9,200.8 291.3,200 289.8,222.2 	"/>
	<path class="st12" d="M299.7,225.9c0,0,0.9,1.3,0.7,3.2v-0.3l-1.2,54.3l-16.8-1.2l6.3-53.9c0.1-1.9,1.2-2.9,1.2-2.9"/>
	
		<ellipse transform="matrix(6.818760e-02 -0.9977 0.9977 6.818760e-02 78.9055 480.8764)" class="st16" cx="296.9" cy="198.2" rx="3.6" ry="7"/>
	<path class="st12" d="M302.8,224c-0.1,1.1-4.5,3-7.7,2.7c-3.2-0.2-7.6-2.7-7.6-3.8c0-1.1,4.7-0.3,7.8-0.1S302.9,222.9,302.8,224z"
		/>
	
		<ellipse transform="matrix(6.818760e-02 -0.9977 0.9977 6.818760e-02 170.5646 406.545)" class="st17" cx="302.9" cy="112" rx="4.6" ry="4.1"/>
	<path class="st15" d="M300.8,115.7c0,0,2.5,1.3,3.4,0.2s-4.1-2.5-3.3-1.2c0.8,1.3,3.7,1.3,2.9-0.3c-0.9-1.6-3.4-1.5-2.6-0.9
		c0.8,0.7,4.5,1.1,3.1-0.3c-1.4-1.4-4.2-2.1-2.7-0.9c1.4,1.2,4.7,1,2.7-0.1s-5.1-1.6-2.4-1.2c2.6,0.4,4.8,2,2.6,0.4"/>
</g>
<g>
	<g>
		<path class="st18" d="M459.2,324.1v84.5l-34.5-0.2c0,0,15.7-90.1-50-86.4c-63.4-1.8-48,86.5-48,86.5l-28.7-0.1
			c0,0,21.5-108.2-69.4-102.6l5.8,0.1c-95.9,2.5-69.4,102.6-69.4,102.6h-33.6c0,0,15.7-90.1-50-86.4c-63.4-1.8-48,86.5-48,86.5
			l-30.3,0.1v-84.5c0,0,154.7-67,336.8-35.4v0.4l8.5,1.1c15.7,3,31.7,6.7,47.8,11.3l-0.1,0.4l6,1.2
			C421.1,309.1,440.2,315.9,459.2,324.1L459.2,324.1z"/>
		<g>
			<g>
				<defs>
					<path id="SVGID_1_" d="M459.2,324.1v84.5l-34.5-0.2c0,0,15.7-90.1-50-86.4c-63.4-1.8-48,86.5-48,86.5l-28.7-0.1
						c0,0,21.5-108.2-69.4-102.6l5.8,0.1c-95.9,2.5-69.4,102.6-69.4,102.6h-33.6c0,0,15.7-90.1-50-86.4c-63.4-1.8-48,86.5-48,86.5
						l-30.3,0.1v-84.5c0,0,154.7-67,336.8-35.4v0.4l8.5,1.1c15.7,3,31.7,6.7,47.8,11.3l-0.1,0.4l6,1.2
						C421.1,309.1,440.2,315.9,459.2,324.1L459.2,324.1z"/>
				</defs>
				<clipPath id="SVGID_00000073688238285937113130000006457243618636576659_">
					<use xlink:href="#SVGID_1_"  style="overflow:visible;"/>
				</clipPath>
				<g style="clip-path:url(#SVGID_00000073688238285937113130000006457243618636576659_);">
					<g>
						<line class="st13" x1="223.8" y1="473.3" x2="308.2" y2="473.3"/>
						<line class="st13" x1="223.8" y1="465" x2="308.2" y2="465"/>
						<line class="st13" x1="223.8" y1="482.8" x2="308.2" y2="482.8"/>
						<line class="st13" x1="223.8" y1="491.4" x2="308.2" y2="491.4"/>
						<polyline class="st13" points="224.3,499.4 258.5,499.4 308.8,499.4 						"/>
						<line class="st13" x1="239.1" y1="499.4" x2="239.1" y2="509.5"/>
						<line class="st13" x1="258.3" y1="509.5" x2="258.5" y2="499.4"/>
						<line class="st13" x1="276.5" y1="509.5" x2="276.5" y2="499.4"/>
						<line class="st13" x1="294.6" y1="509.5" x2="294.7" y2="499.4"/>
						<line class="st13" x1="301.7" y1="499.4" x2="301.8" y2="491.4"/>
						<line class="st13" x1="285.6" y1="499.4" x2="285.7" y2="491.4"/>
						<line class="st13" x1="267.9" y1="499.4" x2="268" y2="491.4"/>
						<line class="st13" x1="248.1" y1="499.4" x2="248.2" y2="491.4"/>
						<line class="st13" x1="239.7" y1="491.1" x2="239.8" y2="483"/>
						<line class="st13" x1="257.6" y1="491.1" x2="257.7" y2="483"/>
						<line class="st13" x1="276.5" y1="491.1" x2="276.6" y2="483"/>
						<line class="st13" x1="294.6" y1="491.4" x2="294.7" y2="483.5"/>
						<line class="st13" x1="305.1" y1="482.8" x2="305.2" y2="473.3"/>
						<line class="st13" x1="288.2" y1="483" x2="288.3" y2="473.3"/>
						<line class="st13" x1="269.8" y1="482.8" x2="269.9" y2="473.3"/>
						<line class="st13" x1="247.3" y1="482.8" x2="247.4" y2="473.3"/>
						<line class="st13" x1="229.5" y1="482.4" x2="229.6" y2="473.7"/>
						<line class="st13" x1="237.2" y1="472.9" x2="237.3" y2="464.6"/>
						<line class="st13" x1="258.3" y1="473.3" x2="258.5" y2="464.9"/>
						<line class="st13" x1="278.9" y1="473.3" x2="279" y2="464.9"/>
						<line class="st13" x1="294.5" y1="473.3" x2="294.6" y2="464.9"/>
						<line class="st13" x1="216.8" y1="518.3" x2="301.3" y2="518.3"/>
						<line class="st13" x1="216.8" y1="509.9" x2="301.3" y2="509.9"/>
						<line class="st13" x1="216.8" y1="527.7" x2="301.3" y2="527.7"/>
						<line class="st13" x1="216.8" y1="536.4" x2="301.3" y2="536.4"/>
						<polyline class="st13" points="217.4,544.4 251.5,544.4 301.8,544.4 						"/>
						<line class="st13" x1="232.2" y1="544.4" x2="232.2" y2="554.4"/>
						<line class="st13" x1="251.4" y1="554.4" x2="251.5" y2="544.4"/>
						<line class="st13" x1="269.5" y1="554.4" x2="269.7" y2="544.4"/>
						<line class="st13" x1="287.7" y1="554.4" x2="287.8" y2="544.4"/>
						<line class="st13" x1="294.9" y1="544.4" x2="295" y2="536.4"/>
						<line class="st13" x1="278.8" y1="544.4" x2="278.9" y2="536.4"/>
						<line class="st13" x1="261" y1="544.4" x2="261.1" y2="536.4"/>
						<line class="st13" x1="241.3" y1="544.4" x2="241.4" y2="536.4"/>
						<line class="st13" x1="232.9" y1="536.1" x2="233" y2="528.1"/>
						<line class="st13" x1="250.8" y1="536.1" x2="250.9" y2="528.1"/>
						<line class="st13" x1="269.7" y1="536.1" x2="269.8" y2="528.1"/>
						<line class="st13" x1="287.8" y1="536.4" x2="287.9" y2="528.4"/>
						<line class="st13" x1="298.3" y1="527.7" x2="298.4" y2="518.3"/>
						<line class="st13" x1="281.4" y1="528.1" x2="281.5" y2="518.3"/>
						<line class="st13" x1="262.8" y1="527.7" x2="263" y2="518.3"/>
						<line class="st13" x1="240.4" y1="527.7" x2="240.4" y2="518.3"/>
						<line class="st13" x1="222.7" y1="527.4" x2="222.8" y2="518.6"/>
						<line class="st13" x1="230.2" y1="518" x2="230.3" y2="509.5"/>
						<line class="st13" x1="251.5" y1="518.3" x2="251.6" y2="509.8"/>
						<line class="st13" x1="272.1" y1="518.3" x2="272.2" y2="509.8"/>
						<line class="st13" x1="287.7" y1="518.3" x2="287.8" y2="509.8"/>
						<line class="st13" x1="308.2" y1="473.4" x2="392.7" y2="473.4"/>
						<line class="st13" x1="308.2" y1="465" x2="392.7" y2="465"/>
						<line class="st13" x1="308.2" y1="482.8" x2="392.7" y2="482.8"/>
						<line class="st13" x1="308.2" y1="491.5" x2="392.7" y2="491.5"/>
						<polyline class="st13" points="308.8,499.5 342.9,499.5 393.2,499.5 						"/>
						<line class="st13" x1="323.6" y1="499.5" x2="323.6" y2="509.5"/>
						<line class="st13" x1="342.8" y1="509.5" x2="342.9" y2="499.5"/>
						<line class="st13" x1="360.9" y1="509.5" x2="361" y2="499.5"/>
						<line class="st13" x1="379" y1="509.5" x2="379.1" y2="499.5"/>
						<line class="st13" x1="386.2" y1="499.5" x2="386.3" y2="491.5"/>
						<line class="st13" x1="370" y1="499.5" x2="370.1" y2="491.5"/>
						<line class="st13" x1="352.4" y1="499.5" x2="352.5" y2="491.5"/>
						<line class="st13" x1="332.6" y1="499.5" x2="332.7" y2="491.5"/>
						<line class="st13" x1="324.1" y1="491.2" x2="324.2" y2="483.1"/>
						<line class="st13" x1="342" y1="491.2" x2="342.1" y2="483.1"/>
						<line class="st13" x1="360.9" y1="491.2" x2="361" y2="483.1"/>
						<line class="st13" x1="379" y1="491.5" x2="379.1" y2="483.5"/>
						<line class="st13" x1="389.6" y1="482.8" x2="389.7" y2="473.4"/>
						<line class="st13" x1="372.7" y1="483.1" x2="372.8" y2="473.4"/>
						<line class="st13" x1="354.2" y1="482.8" x2="354.3" y2="473.4"/>
						<line class="st13" x1="331.7" y1="482.8" x2="331.8" y2="473.4"/>
						<line class="st13" x1="313.9" y1="482.5" x2="314" y2="473.7"/>
						<line class="st13" x1="321.6" y1="473" x2="321.7" y2="464.7"/>
						<line class="st13" x1="342.8" y1="473.4" x2="342.9" y2="465"/>
						<line class="st13" x1="363.3" y1="473.4" x2="363.4" y2="465"/>
						<line class="st13" x1="378.9" y1="473.4" x2="379" y2="465"/>
						<line class="st13" x1="300.4" y1="518.3" x2="384.9" y2="518.3"/>
						<line class="st13" x1="300.4" y1="510.1" x2="384.9" y2="510.1"/>
						<line class="st13" x1="300.4" y1="527.7" x2="384.9" y2="527.7"/>
						<line class="st13" x1="300.4" y1="536.4" x2="384.9" y2="536.4"/>
						<polyline class="st13" points="301,544.4 335.1,544.4 385.4,544.4 						"/>
						<line class="st13" x1="315.8" y1="544.4" x2="315.8" y2="554.5"/>
						<line class="st13" x1="335" y1="554.5" x2="335.1" y2="544.4"/>
						<line class="st13" x1="353.1" y1="554.5" x2="353.2" y2="544.4"/>
						<line class="st13" x1="371.2" y1="554.5" x2="371.4" y2="544.4"/>
						<line class="st13" x1="378.4" y1="544.4" x2="378.6" y2="536.4"/>
						<line class="st13" x1="362.3" y1="544.4" x2="362.5" y2="536.4"/>
						<line class="st13" x1="344.6" y1="544.4" x2="344.7" y2="536.4"/>
						<line class="st13" x1="324.9" y1="544.4" x2="325" y2="536.4"/>
						<line class="st13" x1="316.4" y1="536.1" x2="316.4" y2="528.1"/>
						<line class="st13" x1="334.3" y1="536.1" x2="334.5" y2="528.1"/>
						<line class="st13" x1="353.1" y1="536.1" x2="353.3" y2="528.1"/>
						<line class="st13" x1="371.4" y1="536.4" x2="371.5" y2="528.5"/>
						<line class="st13" x1="381.9" y1="527.7" x2="382" y2="518.3"/>
						<line class="st13" x1="365" y1="528.1" x2="365.1" y2="518.3"/>
						<line class="st13" x1="346.4" y1="527.7" x2="346.5" y2="518.3"/>
						<line class="st13" x1="323.9" y1="527.7" x2="324" y2="518.3"/>
						<line class="st13" x1="306.2" y1="527.4" x2="306.3" y2="518.7"/>
						<line class="st13" x1="313.8" y1="518" x2="313.9" y2="509.6"/>
						<line class="st13" x1="335.1" y1="518.3" x2="335.2" y2="509.9"/>
						<line class="st13" x1="355.6" y1="518.3" x2="355.8" y2="509.9"/>
						<line class="st13" x1="371.2" y1="518.3" x2="371.4" y2="509.9"/>
					</g>
					<g>
						<line class="st13" x1="79.5" y1="446.2" x2="163.9" y2="446.2"/>
						<line class="st13" x1="79.5" y1="437.9" x2="163.9" y2="437.9"/>
						<line class="st13" x1="79.5" y1="455.7" x2="163.9" y2="455.7"/>
						<line class="st13" x1="79.5" y1="464.4" x2="163.9" y2="464.4"/>
						<polyline class="st13" points="80,472.4 114.2,472.4 164.5,472.4 						"/>
						<line class="st13" x1="94.9" y1="472.4" x2="94.9" y2="482.4"/>
						<line class="st13" x1="114.2" y1="482.4" x2="114.2" y2="472.4"/>
						<line class="st13" x1="132.2" y1="482.4" x2="132.3" y2="472.4"/>
						<line class="st13" x1="150.4" y1="482.4" x2="150.4" y2="472.4"/>
						<line class="st13" x1="157.5" y1="472.4" x2="157.6" y2="464.4"/>
						<line class="st13" x1="141.4" y1="472.4" x2="141.5" y2="464.4"/>
						<line class="st13" x1="123.7" y1="472.4" x2="123.8" y2="464.4"/>
						<line class="st13" x1="103.9" y1="472.4" x2="104" y2="464.4"/>
						<line class="st13" x1="95.5" y1="464" x2="95.6" y2="456"/>
						<line class="st13" x1="113.4" y1="464" x2="113.5" y2="456"/>
						<line class="st13" x1="132.3" y1="464" x2="132.4" y2="456"/>
						<line class="st13" x1="150.4" y1="464.4" x2="150.5" y2="456.3"/>
						<line class="st13" x1="160.9" y1="455.7" x2="161" y2="446.2"/>
						<line class="st13" x1="144" y1="456" x2="144.1" y2="446.2"/>
						<line class="st13" x1="125.5" y1="455.7" x2="125.7" y2="446.2"/>
						<line class="st13" x1="103.1" y1="455.7" x2="103.2" y2="446.2"/>
						<line class="st13" x1="85.3" y1="455.4" x2="85.4" y2="446.6"/>
						<line class="st13" x1="92.8" y1="445.9" x2="93" y2="437.5"/>
						<line class="st13" x1="114.2" y1="446.2" x2="114.3" y2="437.9"/>
						<line class="st13" x1="134.7" y1="446.2" x2="134.8" y2="437.9"/>
						<line class="st13" x1="150.3" y1="446.2" x2="150.4" y2="437.9"/>
						<line class="st13" x1="72.6" y1="491.2" x2="157.1" y2="491.2"/>
						<line class="st13" x1="72.6" y1="482.9" x2="157.1" y2="482.9"/>
						<line class="st13" x1="72.6" y1="500.6" x2="157.1" y2="500.6"/>
						<line class="st13" x1="72.6" y1="509.3" x2="157.1" y2="509.3"/>
						<polyline class="st13" points="73.2,517.3 107.3,517.3 157.6,517.3 						"/>
						<line class="st13" x1="88" y1="517.3" x2="88" y2="527.4"/>
						<line class="st13" x1="107.2" y1="527.4" x2="107.3" y2="517.3"/>
						<line class="st13" x1="125.4" y1="527.4" x2="125.5" y2="517.3"/>
						<line class="st13" x1="143.5" y1="527.4" x2="143.6" y2="517.3"/>
						<line class="st13" x1="150.7" y1="517.3" x2="150.7" y2="509.3"/>
						<line class="st13" x1="134.6" y1="517.3" x2="134.7" y2="509.3"/>
						<line class="st13" x1="116.8" y1="517.3" x2="116.9" y2="509.3"/>
						<line class="st13" x1="97.1" y1="517.3" x2="97.2" y2="509.3"/>
						<line class="st13" x1="88.6" y1="509" x2="88.7" y2="500.9"/>
						<line class="st13" x1="106.6" y1="509" x2="106.7" y2="500.9"/>
						<line class="st13" x1="125.5" y1="509" x2="125.5" y2="500.9"/>
						<line class="st13" x1="143.6" y1="509.3" x2="143.7" y2="501.3"/>
						<line class="st13" x1="154.1" y1="500.6" x2="154.2" y2="491.2"/>
						<line class="st13" x1="137.2" y1="500.9" x2="137.3" y2="491.2"/>
						<line class="st13" x1="118.7" y1="500.6" x2="118.8" y2="491.2"/>
						<line class="st13" x1="96.1" y1="500.6" x2="96.3" y2="491.2"/>
						<line class="st13" x1="78.5" y1="500.3" x2="78.6" y2="491.6"/>
						<line class="st13" x1="86" y1="490.8" x2="86.1" y2="482.5"/>
						<line class="st13" x1="107.3" y1="491.2" x2="107.5" y2="482.8"/>
						<line class="st13" x1="127.9" y1="491.2" x2="128" y2="482.8"/>
						<line class="st13" x1="143.5" y1="491.2" x2="143.6" y2="482.8"/>
						<line class="st13" x1="163.9" y1="446.4" x2="248.5" y2="446.4"/>
						<line class="st13" x1="163.9" y1="438" x2="248.5" y2="438"/>
						<line class="st13" x1="163.9" y1="455.8" x2="248.5" y2="455.8"/>
						<line class="st13" x1="163.9" y1="464.5" x2="248.5" y2="464.5"/>
						<polyline class="st13" points="164.5,472.5 198.7,472.5 249,472.5 						"/>
						<line class="st13" x1="179.4" y1="472.5" x2="179.4" y2="482.5"/>
						<line class="st13" x1="198.6" y1="482.5" x2="198.7" y2="472.5"/>
						<line class="st13" x1="216.6" y1="482.5" x2="216.7" y2="472.5"/>
						<line class="st13" x1="234.8" y1="482.5" x2="235" y2="472.5"/>
						<line class="st13" x1="242" y1="472.5" x2="242.1" y2="464.5"/>
						<line class="st13" x1="225.8" y1="472.5" x2="225.9" y2="464.5"/>
						<line class="st13" x1="208.2" y1="472.5" x2="208.3" y2="464.5"/>
						<line class="st13" x1="188.4" y1="472.5" x2="188.5" y2="464.5"/>
						<line class="st13" x1="179.9" y1="464.1" x2="180" y2="456.1"/>
						<line class="st13" x1="197.8" y1="464.1" x2="197.9" y2="456.1"/>
						<line class="st13" x1="216.7" y1="464.1" x2="216.8" y2="456.1"/>
						<line class="st13" x1="234.8" y1="464.5" x2="235" y2="456.5"/>
						<line class="st13" x1="245.4" y1="455.8" x2="245.5" y2="446.4"/>
						<line class="st13" x1="228.5" y1="456.1" x2="228.6" y2="446.4"/>
						<line class="st13" x1="210" y1="455.8" x2="210" y2="446.4"/>
						<line class="st13" x1="187.5" y1="455.8" x2="187.6" y2="446.4"/>
						<line class="st13" x1="169.7" y1="455.4" x2="169.8" y2="446.7"/>
						<line class="st13" x1="177.4" y1="445.9" x2="177.5" y2="437.6"/>
						<line class="st13" x1="198.6" y1="446.4" x2="198.7" y2="437.9"/>
						<line class="st13" x1="219.1" y1="446.4" x2="219.3" y2="437.9"/>
						<line class="st13" x1="234.7" y1="446.4" x2="234.8" y2="437.9"/>
						<line class="st13" x1="156.2" y1="491.3" x2="240.7" y2="491.3"/>
						<line class="st13" x1="156.2" y1="482.9" x2="240.7" y2="482.9"/>
						<line class="st13" x1="156.2" y1="500.7" x2="240.7" y2="500.7"/>
						<line class="st13" x1="156.2" y1="509.4" x2="240.7" y2="509.4"/>
						<polyline class="st13" points="156.8,517.4 190.9,517.4 241.2,517.4 						"/>
						<line class="st13" x1="171.6" y1="517.4" x2="171.6" y2="527.4"/>
						<line class="st13" x1="190.8" y1="527.4" x2="190.9" y2="517.4"/>
						<line class="st13" x1="208.9" y1="527.4" x2="209" y2="517.4"/>
						<line class="st13" x1="227" y1="527.4" x2="227.2" y2="517.4"/>
						<line class="st13" x1="234.2" y1="517.4" x2="234.3" y2="509.4"/>
						<line class="st13" x1="218.2" y1="517.4" x2="218.3" y2="509.4"/>
						<line class="st13" x1="200.4" y1="517.4" x2="200.5" y2="509.4"/>
						<line class="st13" x1="180.7" y1="517.4" x2="180.8" y2="509.4"/>
						<line class="st13" x1="172.1" y1="509.1" x2="172.2" y2="501"/>
						<line class="st13" x1="190.1" y1="509.1" x2="190.3" y2="501"/>
						<line class="st13" x1="208.9" y1="509.1" x2="209" y2="501"/>
						<line class="st13" x1="227.2" y1="509.4" x2="227.3" y2="501.4"/>
						<line class="st13" x1="237.7" y1="500.7" x2="237.8" y2="491.3"/>
						<line class="st13" x1="220.8" y1="501" x2="220.9" y2="491.3"/>
						<line class="st13" x1="202.2" y1="500.7" x2="202.3" y2="491.3"/>
						<line class="st13" x1="179.7" y1="500.7" x2="179.8" y2="491.3"/>
						<line class="st13" x1="162" y1="500.4" x2="162.1" y2="491.6"/>
						<line class="st13" x1="169.6" y1="490.9" x2="169.7" y2="482.5"/>
						<line class="st13" x1="190.8" y1="491.3" x2="191" y2="482.9"/>
						<line class="st13" x1="211.5" y1="491.3" x2="211.6" y2="482.9"/>
						<line class="st13" x1="227" y1="491.3" x2="227.2" y2="482.9"/>
					</g>
				</g>
			</g>
		</g>
		<path class="st3" d="M459.2,324.1v84.5l-34.5-0.2c0,0,15.7-90.1-50-86.4c-63.4-1.8-48,86.5-48,86.5l-28.7-0.1
			c0,0,21.5-108.2-69.4-102.6l5.8,0.1c-95.9,2.5-69.4,102.6-69.4,102.6h-33.6c0,0,15.7-90.1-50-86.4c-63.4-1.8-48,86.5-48,86.5
			l-30.3,0.1v-84.5c0,0,154.7-67,336.8-35.4v0.4l8.5,1.1c15.7,3,31.7,6.7,47.8,11.3l-0.1,0.4l6,1.2
			C421.1,309.1,440.2,315.9,459.2,324.1L459.2,324.1z"/>
	</g>
	<path class="st3" d="M84.7,322.1l-4.3-0.1c0.4,0,0.8,0,1.2-0.1C82.6,322,83.6,322,84.7,322.1z"/>
	<path class="st3" d="M377.9,322.1c-1.1-0.1-2.1-0.1-3.1-0.1"/>
	<path class="st3" d="M374.9,322c-0.4,0-0.8,0-1.2,0.1"/>
</g>
<rect x="3.3" y="362.6" class="st20" width="4.6" height="2.6"/>
<rect x="3.3" y="365.6" class="st20" width="7.4" height="2.6"/>
<rect x="134.1" y="395.8" transform="matrix(0.1616 -0.9869 0.9869 0.1616 -279.3947 467.4067)" class="st21" width="2.6" height="4.6"/>
<rect x="135" y="397.4" transform="matrix(0.1616 -0.9869 0.9869 0.1616 -281.4622 470.7667)" class="st21" width="2.6" height="7.4"/>
<rect x="171.3" y="329.9" transform="matrix(0.6246 -0.781 0.781 0.6246 -194.8221 259.1615)" class="st21" width="1.8" height="4.7"/>
<rect x="169.2" y="328.9" transform="matrix(0.6246 -0.781 0.781 0.6246 -195.9538 257.6899)" class="st21" width="1.8" height="7.5"/>
<rect x="300.6" y="369" class="st20" width="3.8" height="2.1"/>
<rect x="300.6" y="371.5" class="st20" width="5.9" height="2.6"/>
<rect x="411.9" y="332.3" transform="matrix(0.7528 -0.6583 0.6583 0.7528 -117.1086 355.6576)" class="st22" width="6.2" height="3"/>
<rect x="413.1" y="333.7" transform="matrix(0.7528 -0.6583 0.6583 0.7528 -117.2672 358.1602)" class="st22" width="10.2" height="3"/>
<rect x="452.4" y="344.7" class="st20" width="6.5" height="3.8"/>
<rect x="448.6" y="348.4" class="st20" width="10.4" height="3.8"/>
<path class="st23" d="M130.5,408.4l-8.8,0.1c7-45.6-7.4-62.4-7.4-62.4s-10-20.9-45-13.9c-35,6.8-27.8,76.3-27.8,76.3l-7.4,0.1
	c0,0-17-85.1,47.4-86.6c64.5-1.5,50,86.4,50,86.4"/>
<path class="st23" d="M424.4,408.4h-10.3c7.8-35.7-4.1-58.1-4.1-58.1s-11.8-24.9-46.8-18.1s-27.8,76.3-27.8,76.3h-8.6
	c0,0-16.5-86.3,48.7-86.4s50,86.4,50,86.4"/>
<path class="st23" d="M174.8,407.3c-0.4,0.8-0.7,1.1-0.7,1.1l-8.9,0.1c0,0-2.6-15.7-2.6-41.5c0-25.8,23.1-45.8,29.2-50.1
	s54.6-23.5,86.3,2.6c31.7,26.1,20.2,89,20.2,89h-13.8c0,0,21-91.6-54.8-91.6s-55.5,91.6-55.5,91.6"/>
<path class="st3" d="M228.8,317.1c0,0,71.6-9.4,54.8,91.4"/>
<path class="st4" d="M228.8,317.1c-63.8-1.3-47.6,91.4-47.6,91.4h-7c0,0-18-76.1,41.3-90.3"/>
<g>
	<path class="st4" d="M377.5,330.8c-41.8-3.4-33.8,77.6-33.8,77.6H336c0,0-6.9-68,25.7-75.9L377.5,330.8z"/>
	<path class="st3" d="M414.5,408.5c12.4-84.8-39.6-77.9-39.6-77.9"/>
</g>
<g>
	<g>
		
			<pattern  id="SVGID_00000106130890831292235820000002517979088874574473_" xlink:href="#SVGID_0000007010788075502913937" patternTransform="matrix(1 0 0 1 -384.41 16056.6602)">
		</pattern>
		
			<polygon style="fill:url(#SVGID_00000106130890831292235820000002517979088874574473_);stroke:#000000;stroke-width:0.25;stroke-miterlimit:10;" points="
			221.8,289.2 208.3,302.7 204.9,299.4 218.5,285.8 		"/>
		
			<pattern  id="SVGID_00000036974090214893840910000003170660597277473940_" xlink:href="#SVGID_0000001893901784084593235" patternTransform="matrix(1 0 0 1 -384.41 16056.6602)">
		</pattern>
		
			<polygon style="fill:url(#SVGID_00000036974090214893840910000003170660597277473940_);stroke:#000000;stroke-width:0.25;stroke-miterlimit:10;" points="
			208.3,285.8 221.8,299.4 218.5,302.7 204.9,289.2 		"/>
	</g>
	<g>
		
			<pattern  id="SVGID_00000152238872976497622200000001389691141012318085_" xlink:href="#SVGID_0000017026733277347692679" patternTransform="matrix(1 0 0 1 -384.41 16056.6602)">
		</pattern>
		
			<polygon style="fill:url(#SVGID_00000152238872976497622200000001389691141012318085_);stroke:#000000;stroke-width:0.25;stroke-miterlimit:10;" points="
			240.2,289.2 226.7,302.7 223.3,299.4 236.8,285.8 		"/>
		
			<pattern  id="SVGID_00000131368489261337789150000017216688714341979265_" xlink:href="#SVGID_0000000740986474558147721" patternTransform="matrix(1 0 0 1 -384.41 16056.6602)">
		</pattern>
		
			<polygon style="fill:url(#SVGID_00000131368489261337789150000017216688714341979265_);stroke:#000000;stroke-width:0.25;stroke-miterlimit:10;" points="
			226.7,285.8 240.2,299.4 236.8,302.7 223.3,289.2 		"/>
	</g>
	<g>
		
			<pattern  id="SVGID_00000008836616241884861520000010284020223807129498_" xlink:href="#SVGID_0000005065707915224749793" patternTransform="matrix(1 0 0 1 -384.41 16056.6602)">
		</pattern>
		
			<polygon style="fill:url(#SVGID_00000008836616241884861520000010284020223807129498_);stroke:#000000;stroke-width:0.25;stroke-miterlimit:10;" points="
			259.4,289.2 245.9,302.7 242.5,299.4 256,285.8 		"/>
		
			<pattern  id="SVGID_00000134948195081189264030000002592217486106918301_" xlink:href="#SVGID_0000017456708032676649231" patternTransform="matrix(1 0 0 1 -384.41 16056.6602)">
		</pattern>
		
			<polygon style="fill:url(#SVGID_00000134948195081189264030000002592217486106918301_);stroke:#000000;stroke-width:0.25;stroke-miterlimit:10;" points="
			245.9,285.8 259.4,299.4 256,302.7 242.5,289.2 		"/>
	</g>
</g>
</svg>
