<?xml version="1.0" encoding="UTF-8"?>
<svg id="Layer_2" data-name="Layer 2" xmlns="http://www.w3.org/2000/svg" viewBox="0 0 244.91 453.34">
  <defs>
    <style>
      .cls-1 {
        fill: #00e700;
      }

      .cls-1, .cls-2 {
        stroke: #000;
        stroke-miterlimit: 10;
        stroke-width: 8px;
      }

      .cls-2 {
        fill: none;
      }
    </style>
  </defs>
  <g id="Layer_1-2" data-name="Layer 1">
    <path class="cls-1" d="M240.91,122.46c0-65.21-53.25-118.46-118.46-118.46S4,57.25,4,122.46c0,15.55,2.99,29.91,8.38,43.67h0l1.2,2.39v.6L122.46,442.53,232.54,166.13h0c5.38-13.76,8.38-28.12,8.38-43.67Zm-117.86,74.18c-40.68,0-74.18-33.5-74.18-74.18S81.77,48.27,123.05,48.27s74.18,32.9,74.18,74.18-33.5,74.18-74.18,74.18Z"/>
    <g>
      <path class="cls-2" d="M122.46,121.8h0c-28.37,0-51.37,23-51.37,51.37h0s102.73,0,102.73,0h0c0-28.37-23-51.37-51.37-51.37Z"/>
      <circle class="cls-2" cx="122.46" cy="84.71" r="36.44"/>
    </g>
  </g>
</svg>