<?xml version="1.0" encoding="UTF-8"?>
<svg id="Layer_2" data-name="Layer 2" xmlns="http://www.w3.org/2000/svg" viewBox="0 0 340.57 630.37">
  <defs>
    <style>
      .cls-1 {
        fill: none;
        stroke-width: 4px;
      }

      .cls-1, .cls-2 {
        stroke: #000;
        stroke-miterlimit: 10;
      }

      .cls-2 {
        fill: #9f3232;
        stroke-width: 3px;
      }
    </style>
  </defs>
  <g id="Layer_1-2" data-name="Layer 1">
    <g>
      <path class="cls-1" d="M170.29,2C77.65,2,2,77.63,2,170.27c0,22.11,4.25,42.51,11.91,62.05l1.69,3.4v.85l154.68,388.4L326.66,232.32c7.65-19.54,11.91-39.94,11.91-62.05C338.57,77.63,262.92,2,170.29,2Zm.85,273.66c-57.79,0-105.39-47.59-105.39-105.39s45.35-103.89,102.73-105.32c-27.36,1.39-49.1,24.01-49.1,51.71s23.17,51.76,51.76,51.76,51.78-23.17,51.78-51.76-23.19-51.76-51.78-51.76c28.91,0,55.25,11.68,74.36,30.71,19.13,19.01,31.02,45.35,31.02,74.66,0,58.65-47.59,105.39-105.39,105.39Z"/>
      <path class="cls-2" d="M245.5,95.6c-19.12-19.03-45.45-30.71-74.36-30.71,28.59,0,51.78,23.17,51.78,51.76s-23.19,51.76-51.78,51.76-51.76-23.17-51.76-51.76,21.74-50.32,49.1-51.71c-57.38,1.43-102.73,48.41-102.73,105.32s47.6,105.39,105.39,105.39,105.39-46.74,105.39-105.39c0-29.32-11.89-55.65-31.02-74.66ZM98.16,242.31c0-40.29,32.68-72.97,72.97-72.97,20.15,0,38.39,8.17,51.6,21.37,13.21,13.21,21.37,31.47,21.37,51.6H98.16Z"/>
      <path class="cls-1" d="M244.1,242.31H98.16c0-40.29,32.68-72.97,72.97-72.97,20.15,0,38.39,8.17,51.6,21.37,13.21,13.21,21.37,31.47,21.37,51.6Z"/>
    </g>
  </g>
</svg>