<?xml version="1.0" encoding="UTF-8"?>
<svg id="Layer_2" data-name="Layer 2" xmlns="http://www.w3.org/2000/svg" viewBox="0 0 242.91 449.63">
  <defs>
    <style>
      .cls-1 {
        fill: none;
        stroke-width: 8px;
      }

      .cls-1, .cls-2 {
        stroke: #000;
        stroke-miterlimit: 10;
      }

      .cls-2 {
        fill: #90c026;
        stroke-width: 6px;
      }
    </style>
  </defs>
  <g id="Layer_1-2" data-name="Layer 1">
    <path class="cls-2" d="M239.91,121.46C239.91,56.25,186.67,3,121.46,3S3,56.25,3,121.46c0,15.55,2.99,29.91,8.38,43.67h0l1.2,2.39v.6L121.46,441.53,231.54,165.13h0c5.38-13.76,8.38-28.12,8.38-43.67Zm-117.86,74.18c-40.68,0-74.18-33.5-74.18-74.18S80.77,47.27,122.05,47.27s74.18,32.9,74.18,74.18-33.5,74.18-74.18,74.18Z"/>
    <g>
      <path class="cls-1" d="M121.46,120.8h0c-28.37,0-51.37,23-51.37,51.37h0s102.73,0,102.73,0h0c0-28.37-23-51.37-51.37-51.37Z"/>
      <circle class="cls-1" cx="121.46" cy="83.71" r="36.44"/>
    </g>
  </g>
</svg>