<?xml version="1.0" encoding="UTF-8"?>
<svg id="Layer_2" data-name="Layer 2" xmlns="http://www.w3.org/2000/svg" viewBox="0 0 1074.35 772.58">
  <defs>
    <style>
      .cls-1 {
        fill: #ff7bac;
        stroke-width: 5px;
      }

      .cls-1, .cls-2, .cls-3, .cls-4, .cls-5, .cls-6, .cls-7, .cls-8 {
        stroke-miterlimit: 10;
      }

      .cls-1, .cls-2, .cls-3, .cls-4, .cls-6, .cls-7, .cls-8 {
        stroke: #000;
      }

      .cls-9 {
        letter-spacing: -.02em;
      }

      .cls-10 {
        font-family: Helvetica-Bold, Helvetica;
        font-size: 20px;
        font-weight: 700;
      }

      .cls-2 {
        fill: #f1ebbb;
      }

      .cls-3 {
        fill: #e9bed2;
      }

      .cls-4 {
        fill: #f15a24;
      }

      .cls-5 {
        fill: #dd8419;
        stroke: #0c0603;
      }

      .cls-6 {
        fill: #7fc8d8;
      }

      .cls-7 {
        fill: #22b573;
      }

      .cls-8 {
        fill: #c6d1b4;
      }
    </style>
  </defs>
  <g id="Layer_1-2" data-name="Layer 1">
    <polygon class="cls-6" points=".6 151.58 32.01 .59 413.04 76.08 484.98 157.66 456.61 184.01 445.46 184.01 440.4 172.86 420.13 190.09 401.89 177.93 402.9 212.38 360.34 212.38 360.34 231.63 322.85 231.63 318.79 216.43 282.31 217.45 279.27 208.33 129.29 210.35 97.88 217.45 92.81 166.78 .6 151.58"/>
    <path class="cls-3" d="M97.88,217.45v41.78l-11.04,8.3s12.45,41.5-4.15,107.91l109.57,73.88,19.09,33.2,59.77,40.67,19.09-18.26,58.11-4.15,15.77-16.6v-13.28l-9.13-2.49-4.98-41.5,14.11,.83-4.98-46.48h9.96l6.64-43.99-5.81-25.73-19.09,.83v-15.77l-22.41-7.47,16.6-57.48h-25.73l-.47-15.2-36.48,1.01-3.04-9.12-149.98,2.03-31.41,7.09Z"/>
    <path class="cls-8" d="M370.75,370.06l18.55-4.3v8.92l59.52-21.98,23.81-3.66-21.98-48.53,15.57-52.2h6.41l8.24-31.13,33.88-4.58s-23.57-53.07-34.22-50.8-23.92,22.21-23.92,22.21h-11.15l-5.07-11.15-20.27,17.23-18.24-12.16,1.01,34.45h-42.56v19.25h-15.35l-16.6,57.48,22.41,7.47v15.77l19.09-.83,5.81,38.43-4.95,20.11Z"/>
    <path class="cls-2" d="M562.76,256.31s73.26-15.57,135.53-11.9c0,0,81.5,53.11,92.49,67.76,10.99,14.65,163-22.64,163-22.64v99.56l-66.85,26.56-20.15,32.05h-20.15l-10.07,3.66-101.64-76.92-45.79,86.99-26.56,9.16-.92,8.24-24.72,9.16-19.23-11.9-46.7,30.22,5.49,46.7-9.16,12.82-52.2-21.06,11.9-31.13-1.83-18.31,22.43-4.58,5.04-22.89,25.64-12.82-9.16-21.06-26.24-72.13,68.36-35.93h15.57v-32.97l-58.61-17.4-5.49-19.23Z"/>
    <polygon class="cls-5" points="271.11 523.19 278.44 528.75 297.6 528.75 344.46 523.19 344.46 514.91 355.11 506.39 395.58 506.39 395.58 551.12 514.75 545 524.83 495.55 547.26 490.97 552.3 468.08 577.94 455.26 542.54 362.07 521.24 366.95 493.12 362.07 472.63 349.04 424.53 361.67 389.3 374.68 389.3 365.76 370.75 370.06 271.11 523.19"/>
    <polygon class="cls-4" points="395.07 72.52 406.43 48.08 400.75 31.39 411.34 11.98 443.73 13.71 456.49 19.62 475.14 26.49 525.2 33.36 573.29 67.71 577.94 62.8 626.47 99.12 669.48 81.45 680.27 39.25 715.61 46.12 760.75 40.23 783.33 21.58 798.05 36.3 805.9 26.49 838.29 27.47 894.24 61.82 906.02 50.04 935.46 73.6 953.38 61.82 982.57 79.49 1013.98 73.6 1029.68 77.52 1037.54 74.58 1073.85 94.21 1073.85 222.79 953.38 289.77 851.19 310.98 790.39 312.41 697.9 244.64 626.47 246.92 562.37 256.55 538.56 253.62 519.88 239.11 514.75 212.59 484.98 163.27 395.07 72.52"/>
    <polygon class="cls-7" points="616.16 611.34 638.1 597.79 634.87 588.76 649.07 584.24 649.07 578.43 654.23 569.4 654.23 559.07 647.13 542.94 651 531.97 676.82 519.06 691.66 545.52 734.07 519.06 742.64 528.1 760.06 511.96 760.06 504.22 766.52 508.09 774.26 504.22 778.13 504.22 807.82 523.19 812.98 543.59 829.11 577.79 829.11 590.69 835.57 597.15 884.61 542.94 894.29 551.12 903.32 647.48 889.13 647.48 878.16 640.38 871.06 647.48 862.02 653.93 851.05 667.49 845.25 683.62 843.31 693.94 840.08 700.4 828.47 713.95 786.52 707.5 743.29 744.92 734.07 763.64 721.34 763.64 716.18 772.03 696.82 768.8 616.16 611.34"/>
    <text class="cls-10" transform="translate(173.93 126.83)"><tspan class="cls-9" x="0" y="0">W</tspan><tspan x="18.53" y="0">estpoort</tspan></text>
    <text class="cls-10" transform="translate(192.31 334.32)"><tspan x="0" y="0">New-</tspan><tspan class="cls-9" x="47.78" y="0">W</tspan><tspan x="66.31" y="0">est</tspan></text>
    <path class="cls-1" d="M472.63,349.04s23.81,23.37,54.94,16.72,49.45-16.72,49.45-16.72l33.88-22.89h15.57v-32.97l-58.61-17.4-5.49-19.23s-51.28,5.49-47.62-43.95l-33.88,4.58-8.24,31.13h-6.41l-15.57,52.2,21.98,48.53Z"/>
    <text class="cls-10" transform="translate(385.63 288.24)"><tspan class="cls-9" x="0" y="0">W</tspan><tspan x="18.53" y="0">est</tspan></text>
    <text class="cls-10" transform="translate(503.63 302.9)"><tspan x="0" y="0">Center</tspan></text>
    <text class="cls-10" transform="translate(421.57 453.2)"><tspan x="0" y="0">South</tspan></text>
    <text class="cls-10" transform="translate(706.76 638.12)"><tspan x="0" y="0">South-East</tspan></text>
    <text class="cls-10" transform="translate(714.27 348.36)"><tspan x="0" y="0">East</tspan></text>
    <text class="cls-10" transform="translate(783.2 160.09)"><tspan x="0" y="0">North</tspan></text>
  </g>
</svg>