<?xml version="1.0" encoding="utf-8"?>
<!-- Generator: Adobe Illustrator 27.0.0, SVG Export Plug-In . SVG Version: 6.00 Build 0)  -->
<svg version="1.1" id="Layer_2_00000062882619047916982930000018182339013336227768_"
	 xmlns="http://www.w3.org/2000/svg" xmlns:xlink="http://www.w3.org/1999/xlink" x="0px" y="0px" viewBox="0 0 1074.3 772.6"
	 style="enable-background:new 0 0 1074.3 772.6;" xml:space="preserve">
<style type="text/css">
	.st0{fill:#7FC8D8;stroke:#000000;stroke-miterlimit:10;}
	.st1{fill:#E9BED2;stroke:#000000;stroke-miterlimit:10;}
	.st2{fill:#C6D1B4;stroke:#000000;stroke-miterlimit:10;}
	.st3{fill:#A992A2;stroke:#000000;stroke-miterlimit:10;}
	.st4{fill:#FFFFFF;stroke:#000000;stroke-width:5;stroke-miterlimit:10;}
	.st5{fill:#F1EBBB;stroke:#000000;stroke-miterlimit:10;}
	.st6{fill:#DD8419;stroke:#0C0603;stroke-miterlimit:10;}
	.st7{fill:#F15A24;stroke:#000000;stroke-miterlimit:10;}
	.st8{fill:#22B573;stroke:#000000;stroke-miterlimit:10;}
	.st9{font-family:'Helvetica-Bold';}
	.st10{font-size:30px;}
	.st11{font-family:'ArialMT';}
	.st12{font-size:28px;}
	.st13{font-family:'Arial-BoldMT';}
	.st14{font-size:50px;}
	.st15{fill:none;stroke:#000000;stroke-width:0.5;stroke-miterlimit:10;}
</style>
<polygon class="st0" points="0.6,151.6 32,0.6 413,76.1 485,157.7 456.6,184 445.5,184 440.4,172.9 420.1,190.1 401.9,177.9 
	402.9,212.4 360.3,212.4 360.3,231.6 322.9,231.6 318.8,216.4 282.3,217.4 279.3,208.3 129.3,210.4 97.9,217.4 92.8,166.8 "/>
<path class="st1" d="M97.9,217.4v41.8l-11,8.3c0,0,12.4,41.5-4.2,107.9l109.6,73.9l19.1,33.2l59.8,40.7l19.1-18.3l58.1-4.1
	l15.8-16.6v-13.3l-9.1-2.5l-5-41.5l14.1,0.8l-5-46.5h10l6.6-44l-5.8-25.7l-19.1,0.8v-15.8l-22.4-7.5l16.6-57.5h-25.7l-0.5-15.2
	l-36.5,1l-3-9.1l-150,2L97.9,217.4L97.9,217.4z"/>
<path class="st2" d="M370.8,370.1l18.5-4.3v8.9l59.5-22l23.8-3.7l-22-48.5l15.6-52.2h6.4l8.2-31.1l33.9-4.6c0,0-23.6-53.1-34.2-50.8
	S456.6,184,456.6,184h-11.1l-5.1-11.1l-20.3,17.2l-18.2-12.2l1,34.4h-42.6v19.2H345L328.4,289l22.4,7.5v15.8l19.1-0.8l5.8,38.4
	L370.8,370.1L370.8,370.1z"/>
<path class="st3" d="M472.6,349c0,0,23.8,23.4,54.9,16.7S577,349,577,349l33.9-22.9h15.6v-33l-58.6-17.4l-5.5-19.2
	c0,0-51.3,5.5-47.6-43.9l-33.9,4.6l-8.2,31.1h-6.4l-15.6,52.2L472.6,349L472.6,349z"/>
<path class="st4" d="M220.2,772H0V453.2h121.9c54.3,0,98.3,44,98.3,98.3L220.2,772L220.2,772z"/>
<path class="st5" d="M562.8,256.3c0,0,73.3-15.6,135.5-11.9c0,0,81.5,53.1,92.5,67.8s163-22.6,163-22.6v99.6L887,415.8l-20.2,32
	h-20.2l-10.1,3.7l-101.6-76.9l-45.8,87l-26.6,9.2l-0.9,8.2l-24.7,9.2l-19.2-11.9l-46.7,30l5.5,46.7l-9.2,12.8l-52.2-21.1l11.9-31.1
	l-1.8-18.3l22.4-4.6l5-22.9l25.6-12.8l-9.2-21.1l-26.2-72.1l68.4-35.9h15.6v-33l-58.6-17.4L562.8,256.3L562.8,256.3z"/>
<polygon class="st6" points="271.1,523.2 278.4,528.8 297.6,528.8 344.5,523.2 344.5,514.9 355.1,506.4 395.6,506.4 395.6,551.1 
	514.8,545 524.8,495.5 547.3,491 552.3,468.1 577.9,455.3 542.5,362.1 521.2,367 493.1,362.1 472.6,349 424.5,361.7 389.3,374.7 
	389.3,365.8 370.8,370.1 "/>
<polygon class="st7" points="395.1,72.5 406.4,48.1 400.8,31.4 411.3,12 443.7,13.7 456.5,19.6 475.1,26.5 525.2,33.4 573.3,67.7 
	577.9,62.8 626.5,99.1 669.5,81.4 680.3,39.2 715.6,46.1 760.8,40.2 783.3,21.6 798,36.3 805.9,26.5 838.3,27.5 894.2,61.8 906,50 
	935.5,73.6 953.4,61.8 982.6,79.5 1014,73.6 1029.7,77.5 1037.5,74.6 1073.8,94.2 1073.8,222.8 953.4,289.8 851.2,311 790.4,312.4 
	697.9,244.6 626.5,246.9 562.4,256.5 538.6,253.6 519.9,239.1 514.8,212.6 485,163.3 "/>
<polygon class="st8" points="616.2,611.3 638.1,597.8 634.9,588.8 649.1,584.2 649.1,578.4 654.2,569.4 654.2,559.1 647.1,542.9 
	651,532 676.8,519.1 691.7,545.5 734.1,519.1 742.6,528.1 760.1,512 760.1,504.2 766.5,508.1 774.3,504.2 778.1,504.2 807.8,523.2 
	813,543.6 829.1,577.8 829.1,590.7 835.6,597.2 884.6,542.9 894.3,551.1 903.3,647.5 889.1,647.5 878.2,640.4 871.1,647.5 
	862,653.9 851,667.5 845.2,683.6 843.3,693.9 840.1,700.4 828.5,714 786.5,707.5 743.3,744.9 734.1,763.6 721.3,763.6 716.2,772 
	696.8,768.8 "/>
<text transform="matrix(1 0 0 1 14.7516 504.22)" class="st9 st10">A </text>
<text transform="matrix(1 0 0 1 14.7516 540.22)" class="st9 st10">B</text>
<text transform="matrix(1 0 0 1 14.7516 576.22)" class="st9 st10">C</text>
<text transform="matrix(1 0 0 1 14.7516 612.22)" class="st9 st10">D </text>
<text transform="matrix(1 0 0 1 14.7516 648.22)" class="st9 st10">E </text>
<text transform="matrix(1 0 0 1 14.7516 684.22)" class="st9 st10">F </text>
<text transform="matrix(1 0 0 1 14.7516 720.22)" class="st9 st10">G </text>
<text transform="matrix(1 0 0 1 14.7516 756.22)" class="st9 st10">H</text>
<text transform="matrix(1 0 0 1 53.3877 504.22)" class="st11 st12">Westpoort</text>
<text transform="matrix(1 0 0 1 53.3877 540.2203)" class="st11 st12">New-West</text>
<text transform="matrix(1 0 0 1 53.3877 576.8192)" class="st11 st12">West</text>
<text transform="matrix(1 0 0 1 53.3877 612.2196)" class="st11 st12">South</text>
<text transform="matrix(1 0 0 1 53.3877 648.2198)" class="st11 st12">Center</text>
<text transform="matrix(1 0 0 1 53.3877 684.2201)" class="st11 st12">North</text>
<text transform="matrix(1 0 0 1 53.3877 720.7907)" class="st11 st12">East</text>
<text transform="matrix(1 0 0 1 53.3877 756.2197)" class="st11 st12">South-East</text>
<text transform="matrix(1 0 0 1 193.7901 145.6902)" class="st13 st14">A</text>
<text transform="matrix(1 0 0 1 229.1998 349.0398)" class="st13 st14">B</text>
<text transform="matrix(1 0 0 1 395.0701 289.7752)" class="st13 st14">C</text>
<text transform="matrix(1 0 0 1 428.6192 464.9174)" class="st13 st14">D</text>
<text transform="matrix(1 0 0 1 514.75 313.2404)" class="st13 st14">E</text>
<text transform="matrix(1 0 0 1 762.7046 162.195)" class="st13 st14">F</text>
<text transform="matrix(1 0 0 1 707.5862 348.3599)" class="st13 st14">G</text>
<text transform="matrix(1 0 0 1 743.4358 642.0614)" class="st13 st14">H</text>
<line class="st15" x1="15.5" y1="504.2" x2="181" y2="504.2"/>
<line class="st15" x1="17.2" y1="540.2" x2="182.7" y2="540.2"/>
<line class="st15" x1="17.2" y1="577.1" x2="182.7" y2="577.1"/>
<line class="st15" x1="17.2" y1="612.6" x2="182.7" y2="612.6"/>
<line class="st15" x1="17.2" y1="648.6" x2="182.7" y2="648.6"/>
<line class="st15" x1="17.2" y1="684.5" x2="182.7" y2="684.5"/>
<line class="st15" x1="17.2" y1="720.5" x2="182.7" y2="720.5"/>
<line class="st15" x1="17.2" y1="756.5" x2="182.7" y2="756.5"/>
</svg>
